<svg width="101" height="25" viewBox="0 0 101 25" fill="none" xmlns="http://www.w3.org/2000/svg">
<mask id="mask0_1_888" style="mask-type:luminance" maskUnits="userSpaceOnUse" x="0" y="0" width="101" height="26">
<path d="M0.265991 0.935059H100.266V25.0091H0.265991V0.935059Z" fill="white"/>
</mask>
<g mask="url(#mask0_1_888)">
<path d="M71.7753 11.2497V20.0831C71.7753 21.3701 72.3771 22.009 73.5623 22.0738C73.9922 22.079 74.4193 22.0036 74.8215 21.8516L74.6178 20.6109C74.4141 20.6572 74.2753 20.6849 74.1549 20.6849C73.9049 20.6849 73.7475 20.6109 73.6364 20.472C73.516 20.3423 73.4697 20.1016 73.4697 19.7868V11.1201L71.7753 11.2497ZM54.8215 19.6386C55.1907 20.3832 55.7787 20.9971 56.5067 21.3979C57.266 21.8053 58.1364 22.009 59.1919 22.009C60.4652 22.0014 61.7219 21.7204 62.8771 21.1849V16.9534H58.8956V18.2775H61.2104V20.3146C60.5876 20.5426 59.9293 20.6586 59.266 20.6572C58.5253 20.6572 57.9049 20.4997 57.4234 20.1757C56.9551 19.8435 56.592 19.384 56.3771 18.8516C56.1392 18.2476 56.0228 17.6025 56.0345 16.9534C56.0345 16.1479 56.1641 15.4442 56.4697 14.8701C56.7475 14.296 57.1549 13.8609 57.6734 13.5738C58.2012 13.2683 58.8216 13.1109 59.5067 13.1109C60.3401 13.1109 61.2012 13.3146 62.1179 13.7497L62.553 12.4257C62.0853 12.1988 61.5949 12.0219 61.0901 11.8979C60.5489 11.7772 59.9964 11.7152 59.4419 11.7127C58.4604 11.7127 57.5623 11.9164 56.7845 12.3053C55.9949 12.6887 55.3397 13.302 54.9049 14.0646C54.4512 14.8516 54.2197 15.8053 54.2197 16.9349C54.2197 17.9535 54.4327 18.8794 54.8215 19.6294V19.6386Z" fill="white"/>
<path fill-rule="evenodd" clip-rule="evenodd" d="M31.2012 19.1941H35.229L36.2475 21.8793H38.0993L34.0623 11.8237H32.3956L28.4604 21.8608H30.2197L31.2012 19.1848V19.1941ZM34.7104 17.8237H31.7104L32.7845 14.9163L33.2012 13.62C33.3308 14.0922 33.4975 14.546 33.6271 14.9441L34.7104 17.8237ZM38.766 14.5367C38.7845 15.1385 38.803 15.7126 38.803 16.2219H38.7845V24.9811L40.4975 24.8515V21.7126C40.9975 21.87 41.5067 21.9626 42.0067 21.9626C42.7197 21.9626 43.3308 21.8052 43.8586 21.4811C44.4141 21.1848 44.8215 20.7034 45.1178 20.0922C45.4141 19.4719 45.5808 18.7126 45.5808 17.8422C45.5808 17.0182 45.4419 16.333 45.1919 15.7867C44.9931 15.3119 44.6546 14.9089 44.2213 14.631C43.788 14.3532 43.2804 14.2137 42.766 14.2311C41.8956 14.2311 41.1364 14.6015 40.4697 15.333C40.4556 15.0159 40.4184 14.7003 40.3586 14.3885H38.7567V14.5367H38.766ZM43.8401 17.9811C43.8401 18.9071 43.6549 19.583 43.3123 20.046C42.9419 20.5274 42.4419 20.7497 41.803 20.7497C41.5901 20.7497 41.3678 20.7311 41.1364 20.6848C40.9294 20.6482 40.7295 20.5795 40.5438 20.4811V16.4719C40.7938 16.1941 41.0715 15.9904 41.3401 15.8237C41.6178 15.6756 41.9141 15.6015 42.266 15.6015C42.7382 15.6015 43.0993 15.8052 43.4049 16.1756C43.7012 16.546 43.8401 17.1385 43.8401 17.9811ZM46.6086 16.2126C46.6086 15.7126 46.5808 15.1385 46.5623 14.5367V14.3885H48.1641C48.229 14.7126 48.2567 15.0089 48.2752 15.333C48.5518 14.9916 48.9 14.7152 49.2952 14.5232C49.6904 14.3312 50.123 14.2283 50.5623 14.2219C51.0767 14.2045 51.5843 14.3439 52.0176 14.6218C52.4508 14.8996 52.7894 15.3027 52.9882 15.7774C53.2382 16.333 53.3771 17.0182 53.3771 17.8422C53.3771 18.7126 53.2197 19.4719 52.9141 20.0922C52.6554 20.6761 52.2176 21.1625 51.6641 21.4811C51.1364 21.8052 50.516 21.9626 49.8123 21.9626C49.303 21.9626 48.7938 21.87 48.2938 21.7126V24.8515L46.5808 24.9811V16.2219H46.6086V16.2126ZM51.1086 20.046C51.4604 19.583 51.6364 18.8978 51.6364 17.9811C51.6364 17.1385 51.4975 16.546 51.2012 16.1756C50.9049 15.8052 50.5438 15.6015 50.0623 15.6015C49.7197 15.6015 49.4141 15.6756 49.1364 15.833C48.8678 15.9904 48.5993 16.2034 48.3401 16.4811V20.4811C48.5067 20.5737 48.7104 20.6385 48.9419 20.6848C49.1641 20.7311 49.4049 20.7497 49.5993 20.7497C50.2475 20.7497 50.766 20.5274 51.1086 20.046ZM68.8956 21.87C68.8291 21.5467 68.7888 21.2184 68.7752 20.8885C68.4975 21.2126 68.1827 21.4626 67.7567 21.6941C67.3401 21.9163 66.8586 22.0089 66.3123 22.0089C65.8771 22.0089 65.479 21.9163 65.1456 21.7589C64.7938 21.6015 64.4975 21.3515 64.2938 21.0089C64.0733 20.6332 63.9612 20.2037 63.9697 19.7682C63.9697 19.0367 64.229 18.4719 64.7475 18.0274C65.2752 17.5922 66.1456 17.3885 67.3586 17.3885C67.8215 17.3885 68.2845 17.4163 68.7104 17.4811V17.3422C68.7104 16.6756 68.5715 16.2311 68.303 15.9534C68.0252 15.6756 67.6086 15.5367 67.0901 15.5367C66.3053 15.5752 65.5353 15.7638 64.8215 16.0922L64.5438 14.8515C65.4274 14.4729 66.3787 14.2776 67.3401 14.2774C67.979 14.2774 68.5252 14.37 68.9882 14.5737C69.4512 14.7774 69.7845 15.1015 70.0345 15.583C70.2938 16.0645 70.4234 16.6941 70.4234 17.4997V20.4811L70.4512 21.4071L70.4697 21.87H68.8956ZM67.8864 20.4811C68.2567 20.3145 68.5345 20.0922 68.7567 19.833V18.4441C68.2938 18.3978 67.9141 18.37 67.6086 18.37C66.9049 18.37 66.4234 18.4904 66.1456 18.7126C65.8678 18.9441 65.7382 19.2404 65.7382 19.6385C65.7382 19.9997 65.8308 20.2682 66.0345 20.4534C66.2382 20.6385 66.4975 20.7311 66.8308 20.7311C67.1734 20.7497 67.5252 20.6571 67.8864 20.4811Z" fill="white"/>
<path d="M76.0345 20.0831V11.2497L77.729 11.1201V19.7868C77.729 20.1109 77.7752 20.3423 77.8864 20.472C77.9975 20.6109 78.1641 20.6849 78.4141 20.6849C78.5252 20.6849 78.6641 20.6572 78.8771 20.6109L79.0808 21.8516C78.9141 21.9164 78.7104 21.9627 78.479 22.009C78.2567 22.0553 78.016 22.0738 77.8215 22.0738C76.6271 22.009 76.0345 21.3701 76.0345 20.0831Z" fill="white"/>
<path fill-rule="evenodd" clip-rule="evenodd" d="M81.1919 18.3426H86.0623V17.8889C86.0623 17.2315 85.9419 16.6111 85.7197 16.0648C85.5014 15.5031 85.1123 15.0241 84.6073 14.6952C84.1023 14.3663 83.5069 14.2041 82.9049 14.2315C82.2761 14.2129 81.6556 14.3782 81.1194 14.7071C80.5832 15.0361 80.1546 15.5144 79.8864 16.0833C79.5808 16.6759 79.4512 17.3889 79.4512 18.213C79.4512 19.0093 79.5808 19.6759 79.8586 20.25C80.1364 20.8241 80.5438 21.2593 81.0993 21.5463C81.6456 21.8519 82.303 22.0093 83.1086 22.0093C84.1364 22.0093 85.0808 21.8056 85.9234 21.3889L85.553 20.2222C85.2104 20.3611 84.8678 20.4815 84.5067 20.5648C84.1364 20.6574 83.766 20.7037 83.4327 20.7037C82.0067 20.7037 81.2567 19.9074 81.1827 18.3519L81.1919 18.3426ZM84.4141 17.25C84.4198 16.768 84.256 16.2994 83.9512 15.9259C83.8166 15.7753 83.6507 15.6558 83.4652 15.5759C83.2797 15.4959 83.079 15.4574 82.8771 15.463C82.4419 15.463 82.0808 15.6296 81.803 15.9259C81.5067 16.2222 81.3215 16.6759 81.229 17.25H84.4141Z" fill="white"/>
<path d="M87.3586 16.2684L87.3308 15.0647L87.3123 14.3888H88.9141L88.9882 15.148L88.9975 15.3332C89.016 15.5462 89.0345 15.7128 89.0345 15.861C89.2382 15.5369 89.4234 15.2591 89.6271 15.0277C89.8123 14.8054 90.0345 14.6202 90.2845 14.4814C90.5438 14.3425 90.8401 14.2777 91.1549 14.2777C91.4327 14.2777 91.6364 14.2962 91.8493 14.3702L91.6364 15.8517C91.4581 15.8051 91.2743 15.7832 91.0901 15.7869C90.6734 15.7869 90.3308 15.8795 90.0345 16.0832C89.7382 16.2869 89.4234 16.6388 89.0715 17.0925V21.898H87.3956V16.2684H87.3678H87.3586ZM92.1919 24.7777C92.6489 24.9295 93.1271 25.0076 93.6086 25.0091C94.1211 25.0198 94.6288 24.9087 95.0901 24.6851C95.4882 24.4536 95.8493 24.1295 96.1456 23.7036C96.4419 23.2684 96.7382 22.6758 96.9975 21.9628L99.7382 14.3888H98.0252L96.6364 18.648C96.4512 19.2036 96.3123 19.7221 96.1734 20.2684C96.0993 19.898 95.9697 19.3332 95.7382 18.6202L94.3401 14.4165H92.5067L95.2567 21.9443L95.1364 22.2221C94.7752 23.2036 94.2104 23.6758 93.4512 23.6758C93.1765 23.6738 92.9031 23.6396 92.6364 23.5739L92.5067 23.5462L92.1919 24.7777ZM56.7938 7.45358V4.62024C56.7938 4.28691 56.8123 3.9258 56.8308 3.51839V3.3795L54.2289 7.45358H53.229V2.28691H54.0623V5.24061C54.0623 5.55543 54.0623 5.89802 54.0345 6.28691L56.5993 2.28691H57.6271V7.45358H56.7845H56.7938ZM54.7752 1.82395C54.5901 1.73135 54.4327 1.60173 54.3401 1.43506C54.2475 1.27765 54.1827 1.12024 54.1549 0.935059H54.803C54.8678 1.32395 55.0993 1.50913 55.4604 1.50913C55.8308 1.50913 56.053 1.32395 56.1456 0.935059H56.7938C56.766 1.12024 56.7012 1.27765 56.6086 1.43506C56.516 1.60173 56.3586 1.71284 56.1734 1.82395C55.9567 1.92818 55.7194 1.9823 55.479 1.9823C55.2385 1.9823 55.0012 1.92818 54.7845 1.82395H54.7752Z" fill="white"/>
<path fill-rule="evenodd" clip-rule="evenodd" d="M29.2753 7.2036C28.9014 6.99309 28.6009 6.67321 28.4141 6.28693C28.2011 5.86222 28.0962 5.39153 28.1086 4.91656C28.1086 4.361 28.229 3.88878 28.4327 3.47211C28.6364 3.06471 28.9604 2.74063 29.3493 2.53693C29.7567 2.30545 30.2197 2.19434 30.766 2.19434C31.2938 2.19434 31.729 2.30545 32.1178 2.51841C32.4882 2.72211 32.7845 3.03693 32.9882 3.42582C33.1919 3.81471 33.2845 4.27767 33.2845 4.77767C33.2845 5.33322 33.1734 5.80545 32.9604 6.22211C32.7567 6.62952 32.4419 6.95359 32.053 7.1573C31.6549 7.38878 31.1827 7.49989 30.6549 7.49989C30.1271 7.52767 29.6641 7.4073 29.2753 7.2036ZM31.6178 6.55545C31.8678 6.4073 32.053 6.17582 32.1827 5.87952C32.303 5.58322 32.3678 5.23137 32.3678 4.87026C32.3678 4.49989 32.3215 4.1573 32.2104 3.88878C32.0901 3.59248 31.9327 3.361 31.6827 3.2036C31.4327 3.01841 31.1271 2.94434 30.7475 2.94434C30.3771 2.94434 30.0808 3.03693 29.8215 3.2036C29.5808 3.38878 29.3956 3.611 29.2567 3.9073C29.0142 4.54873 29.0142 5.25661 29.2567 5.89804C29.3666 6.19321 29.5676 6.4457 29.8307 6.61886C30.0937 6.79202 30.4051 6.87684 30.7197 6.861C31.0438 6.81471 31.3678 6.74989 31.6178 6.56471V6.55545Z" fill="white"/>
<path d="M35.0993 3.0185H33.4975L33.5623 2.25924H37.6178L37.5253 3.0185H35.9882V7.46294H35.0993V3.0185ZM41.4141 7.45368H42.4141L40.4975 4.57405L41.4327 3.2222C41.4918 3.12382 41.5706 3.0387 41.6641 2.9722C41.7483 2.92357 41.8449 2.90101 41.9419 2.90739C42.0345 2.90739 42.1271 2.9259 42.2104 2.9722L42.3956 2.28702C42.2289 2.21689 42.0485 2.18524 41.8678 2.19442C41.6364 2.19442 41.4327 2.24072 41.2753 2.35183C41.1086 2.4722 40.9512 2.62961 40.7938 2.86109L39.7104 4.41665H39.2475V2.28702H38.3586V7.45368H39.2475V5.16665H39.8678L41.4049 7.45368H41.4141Z" fill="white"/>
<path fill-rule="evenodd" clip-rule="evenodd" d="M43.1086 2.28676H44.4975C45.1641 2.28676 45.6641 2.42565 46.0067 2.69417C46.3586 2.97194 46.5345 3.36083 46.5345 3.86083C46.5532 4.16863 46.4782 4.47487 46.3196 4.73929C46.1609 5.00371 45.926 5.21393 45.6456 5.34231C45.3678 5.49046 45.053 5.55528 44.6827 5.55528C44.479 5.55528 44.2475 5.53676 43.9975 5.49046V7.45343H43.1086V2.28676ZM45.3493 4.60157C45.5345 4.41639 45.6271 4.18491 45.6271 3.86083C45.6271 3.54602 45.5345 3.30528 45.3215 3.17565C45.1364 3.03676 44.8401 2.97194 44.479 2.97194H43.9975V4.80528C44.229 4.84231 44.3864 4.84231 44.4975 4.84231C44.8678 4.84231 45.1641 4.74972 45.3493 4.59231V4.60157ZM47.3864 6.28676C47.5901 6.67565 47.8678 6.99972 48.2567 7.21269C48.6271 7.40713 49.0808 7.5275 49.6271 7.49972C50.1549 7.49972 50.6364 7.38861 51.016 7.15713C51.4141 6.95343 51.729 6.62935 51.9419 6.22194C52.1456 5.80528 52.2567 5.3238 52.2567 4.7775C52.2567 4.2775 52.1641 3.81454 51.9604 3.42565C51.7629 3.04631 51.4608 2.73144 51.0901 2.51824C50.6738 2.29852 50.2089 2.18707 49.7382 2.19417C49.1919 2.19417 48.7382 2.30528 48.3215 2.53676C47.9254 2.74447 47.6046 3.07168 47.4049 3.47194C47.2012 3.88861 47.0901 4.37009 47.0901 4.91639C47.0901 5.44417 47.1827 5.89787 47.3864 6.28676ZM51.1364 5.87935C50.9975 6.17565 50.8123 6.40713 50.5623 6.56454C50.3123 6.74972 50.016 6.81454 49.6734 6.86083C49.303 6.86083 49.0067 6.79602 48.7567 6.61083C48.5067 6.42565 48.3215 6.19417 48.2012 5.89787C47.9587 5.25644 47.9587 4.54856 48.2012 3.90713C48.3493 3.61083 48.5253 3.37935 48.7845 3.20343C49.0345 3.03676 49.3308 2.94417 49.6919 2.94417C50.0808 2.94417 50.3864 3.01824 50.6364 3.20343C50.8864 3.36083 51.0438 3.59231 51.1641 3.88861C51.2753 4.16639 51.3215 4.50898 51.3215 4.87009C51.3215 5.24046 51.2475 5.58306 51.1364 5.87935Z" fill="white"/>
<path d="M58.3864 3.01854H59.9604V7.46298H60.8586V3.01854H62.3956L62.4882 2.25928H58.4604L58.3864 3.01854ZM63.2382 2.28706H66.2845L66.1919 3.01854H64.1364V4.4352H66.0808V5.12039H64.1364V6.69446H66.303L66.2382 7.4352H63.229V2.28706H63.2382Z" fill="white"/>
<path fill-rule="evenodd" clip-rule="evenodd" d="M72.9882 5.35161C72.8872 5.1611 72.7369 5.00121 72.553 4.88865C72.3678 4.77754 72.1641 4.70347 71.9327 4.68495C72.2104 4.59236 72.4419 4.45347 72.6271 4.24976C72.7845 4.04606 72.8771 3.76828 72.8771 3.47199C72.8771 3.10161 72.7382 2.81458 72.4604 2.60161C72.094 2.36801 71.6625 2.2577 71.229 2.2868H69.5993V7.43495H71.2938C71.6827 7.43495 72.0345 7.36087 72.303 7.24976C72.5808 7.13865 72.803 6.97199 72.9512 6.74976C73.0808 6.5368 73.1456 6.2868 73.1456 5.9905C73.1456 5.75902 73.0993 5.52754 72.9882 5.34236V5.35161ZM71.0438 4.38865H70.4697V2.92569H71.0623C71.3678 2.92569 71.5715 2.97199 71.729 3.0831C71.8864 3.20347 71.9604 3.36087 71.9604 3.56458C71.9621 3.71228 71.9222 3.85747 71.8452 3.98355C71.7683 4.10964 71.6574 4.21151 71.5252 4.27754C71.3864 4.34236 71.229 4.38865 71.0438 4.38865ZM72.2567 5.92569C72.2567 6.20347 72.1641 6.40717 71.9789 6.56458C71.7938 6.72198 71.516 6.79606 71.1549 6.76828H70.4975V5.02754H71.0901C71.4789 5.02754 71.7567 5.10161 71.9604 5.25902C72.1641 5.41643 72.2567 5.62939 72.2567 5.92569Z" fill="white"/>
<path fill-rule="evenodd" clip-rule="evenodd" d="M15.8771 2.30566H6.3771C1.88636 2.30566 0.265991 3.95381 0.265991 8.41677V17.9168C0.265991 22.3983 1.91414 24.0279 6.3771 24.0279H15.8771C20.3586 24.0279 21.9882 22.3797 21.9882 17.9168V8.41677C22.0067 3.95381 20.3586 2.30566 15.8771 2.30566Z" fill="#C8102E"/>
<path d="M4.57155 13.1758H5.13636V16.0184H4.57155V14.8703H3.26599V16.0184H2.69192V13.1758H3.26599V14.324H4.56229V13.1758H4.57155ZM7.81229 14.8055C7.81229 15.2684 7.59007 15.5092 7.1734 15.5092C6.76599 15.5092 6.53451 15.2592 6.53451 14.7777V13.1758H5.96044V14.8055C5.96044 15.6018 6.39562 16.0647 7.1734 16.0647C7.95118 16.0647 8.41414 15.6018 8.41414 14.7777V13.1758H7.84007V14.8055H7.81229ZM14.479 15.1203L13.8308 13.1758H13.3586L12.7104 15.1203L12.0993 13.1758H11.479L12.4604 16.0184H12.9419L13.5901 14.1388L14.2197 16.0184H14.7012L15.6919 13.1758H15.0808L14.4697 15.1203H14.479ZM16.7382 14.8055H17.7938V14.2777H16.7382V13.7036H18.2753V13.1758H16.1919V16.0184H18.3401V15.4907H16.766V14.8055H16.7382ZM19.0067 16.0092H19.5808V13.1758H19.0067V16.0184V16.0092ZM9.53451 15.4166L9.28451 16.0184H8.68266L9.9234 13.1758H10.4234L11.6641 16.0184H11.0623L10.8123 15.4166H9.53451ZM9.73821 14.9166H10.6086L10.1734 13.9073L9.73821 14.9258V14.9166ZM11.1364 9.56472C10.1794 9.56228 9.26231 9.18104 8.58562 8.50435C7.90894 7.82767 7.5277 6.91059 7.52525 5.95361H8.02525C8.02525 6.77873 8.35303 7.57005 8.93647 8.1535C9.51992 8.73695 10.3112 9.06472 11.1364 9.06472C11.9615 9.06472 12.7528 8.73695 13.3363 8.1535C13.9197 7.57005 14.2475 6.77873 14.2475 5.95361H14.7475C14.7475 7.93509 13.1271 9.56472 11.1364 9.56472Z" fill="white"/>
</g>
</svg>
