<svg width="101" height="25" viewBox="0 0 101 25" fill="none" xmlns="http://www.w3.org/2000/svg">
<mask id="mask0_1_740" style="mask-type:luminance" maskUnits="userSpaceOnUse" x="0" y="0" width="101" height="25">
<path d="M0.265991 0.342773H100.266V24.4168H0.265991V0.342773Z" fill="white"/>
</mask>
<g mask="url(#mask0_1_740)">
<path d="M12.9975 0.491211C13.0916 1.71163 12.7063 2.92067 11.9234 3.86158C11.5469 4.33049 11.0686 4.70757 10.5248 4.96424C9.98094 5.22092 9.38582 5.35046 8.78451 5.34306C8.7469 4.75489 8.82569 4.16507 9.01635 3.60739C9.20701 3.04971 9.5058 2.53511 9.89562 2.09306C10.6888 1.18975 11.7928 0.617915 12.9882 0.491211H12.9975ZM15.1827 9.3801C14.8584 9.94597 14.6576 10.5741 14.5935 11.2231C14.5294 11.8721 14.6035 12.5274 14.8108 13.1457C15.018 13.7641 15.3539 14.3316 15.7962 14.8108C16.2385 15.2901 16.7773 15.6703 17.3771 15.9264C17.0492 16.991 16.5555 17.9972 15.9141 18.9079C15.053 20.2042 14.1456 21.4634 12.7104 21.4912C12.0252 21.5097 11.5623 21.306 11.0808 21.1023C10.4909 20.8131 9.84209 20.6643 9.18511 20.6675C8.52814 20.6707 7.88082 20.8259 7.29377 21.1208C6.84006 21.306 6.40488 21.4912 5.77525 21.519C4.41414 21.5745 3.36784 20.1394 2.46969 18.8616C0.682655 16.2505 -0.715493 11.4912 1.15488 8.25973C1.58549 7.48515 2.20911 6.83509 2.96516 6.3727C3.7212 5.91031 4.58398 5.65131 5.46969 5.62084C6.24747 5.61158 6.99747 5.90788 7.64562 6.1764C8.05928 6.37467 8.5041 6.49997 8.96043 6.54677C9.28451 6.54677 9.71043 6.3801 10.2197 6.1764C11.016 5.86158 11.9882 5.47269 12.979 5.5838C13.7395 5.6052 14.4846 5.80384 15.155 6.16391C15.8253 6.52398 16.4023 7.03554 16.8401 7.65788C16.1518 8.07968 15.5815 8.669 15.1827 9.37084V9.3801ZM62.766 20.1579C61.1919 20.1579 60.0345 19.3708 59.9049 18.1857H58.0715C58.1827 20.3523 59.979 21.7227 62.6364 21.7227C65.479 21.7227 67.266 20.3153 67.266 18.0745C67.266 16.3153 66.2475 15.3338 63.7845 14.7412L62.4697 14.4264C60.9234 14.0375 60.2845 13.5468 60.2845 12.6949C60.2845 11.6301 61.2752 10.8986 62.7197 10.8986C64.1734 10.8986 65.1549 11.6208 65.266 12.8153H67.0808C67.0253 10.7505 65.2845 9.32454 62.7475 9.32454C60.1919 9.32454 58.3864 10.7505 58.3864 12.8153C58.3864 14.482 59.4049 15.519 61.6086 16.056L63.1641 16.4264C64.7197 16.806 65.3771 17.3708 65.3771 18.2968C65.3771 19.3708 64.2845 20.1486 62.7752 20.1486L62.766 20.1579Z" fill="white"/>
<path fill-rule="evenodd" clip-rule="evenodd" d="M26.9234 18.2876H31.4975L32.5901 21.5283H34.5623L30.229 9.52832H28.229L23.8771 21.5283H25.8215L26.9141 18.2876H26.9234ZM31.0252 16.7876H27.3956L29.1827 11.5283H29.2382L31.0252 16.7876ZM40.266 21.6117C42.4604 21.6117 43.9141 19.8709 43.9141 17.1487C43.9141 14.4357 42.4512 12.6857 40.2382 12.6857C39.6772 12.6672 39.1217 12.8012 38.6309 13.0735C38.1401 13.3458 37.7324 13.7462 37.4512 14.232H37.4141V12.7783H35.6827V24.4172H37.4789V20.0839H37.516C37.7847 20.571 38.1851 20.9727 38.6715 21.2429C39.1578 21.5131 39.7104 21.6409 40.266 21.6117ZM39.7567 14.2135C41.1549 14.2135 42.0715 15.3802 42.0715 17.1487C42.0715 18.9357 41.1549 20.0931 39.7567 20.0931C38.3864 20.0931 37.4697 18.9172 37.4697 17.1487C37.4697 15.4079 38.3956 14.2135 39.7567 14.2135ZM53.5438 17.1487C53.5438 19.8709 52.0901 21.6117 49.8956 21.6117C49.3385 21.6426 48.784 21.5157 48.2958 21.2454C47.8077 20.9751 47.4058 20.5725 47.1364 20.0839H47.0993V24.4172H45.303V12.7783H47.0438V14.232H47.0715C47.3527 13.7462 47.7604 13.3458 48.2513 13.0735C48.7421 12.8012 49.2976 12.6672 49.8586 12.6857C52.0808 12.6857 53.5438 14.445 53.5438 17.1487ZM51.6919 17.1487C51.6919 15.3802 50.7845 14.2135 49.3771 14.2135C48.016 14.2135 47.0901 15.4079 47.0901 17.1487C47.0901 18.9079 48.016 20.0931 49.3864 20.0931C50.7752 20.0931 51.7012 18.9357 51.7012 17.1487H51.6919Z" fill="white"/>
<path d="M71.1456 10.7134V12.7782H72.8123V14.2041H71.1456V19.0189C71.1456 19.7689 71.4789 20.1208 72.2104 20.1208C72.4049 20.1208 72.6086 20.1023 72.803 20.0745V21.4912C72.4697 21.556 72.1364 21.5837 71.803 21.5745C70.0345 21.5745 69.3401 20.9078 69.3401 19.2134V14.2041H68.0715V12.7782H69.3401V10.7134H71.1456Z" fill="white"/>
<path fill-rule="evenodd" clip-rule="evenodd" d="M77.9234 12.667C75.3956 12.667 73.7752 14.3985 73.7752 17.1485C73.7752 19.9077 75.3771 21.63 77.9234 21.63C80.4697 21.63 82.0715 19.9077 82.0715 17.1485C82.0715 14.3985 80.4604 12.667 77.9234 12.667ZM77.9234 14.1485C79.3771 14.1485 80.2382 15.2596 80.2382 17.1485C80.2382 19.0466 79.3771 20.1485 77.9234 20.1485C76.4697 20.1485 75.6086 19.0374 75.6086 17.1485C75.6086 15.2688 76.4697 14.1485 77.9234 14.1485Z" fill="white"/>
<path d="M83.553 12.7783H85.2567V14.2597H85.303C85.4195 13.796 85.692 13.3865 86.0747 13.0999C86.4575 12.8133 86.9271 12.667 87.4049 12.6857C87.6134 12.6839 87.8215 12.7057 88.0252 12.7505V14.4357C87.7616 14.3541 87.4863 14.3165 87.2104 14.3246C86.9498 14.3135 86.6898 14.3591 86.4485 14.4581C86.2071 14.5571 85.9901 14.7073 85.8123 14.8983C85.6346 15.0892 85.5003 15.3164 85.4188 15.5643C85.3373 15.8121 85.3104 16.0746 85.3401 16.3338V21.519H83.553V12.7783Z" fill="white"/>
<path fill-rule="evenodd" clip-rule="evenodd" d="M92.5345 21.6392C94.5067 21.6392 96.053 20.5374 96.303 18.954H94.5993C94.4394 19.3506 94.1556 19.6848 93.7901 19.9068C93.4246 20.1287 92.9972 20.2265 92.5715 20.1855C92.2483 20.1973 91.9263 20.1402 91.6268 20.0179C91.3274 19.8956 91.0575 19.7109 90.835 19.4761C90.6125 19.2414 90.4425 18.9619 90.3364 18.6564C90.2303 18.3508 90.1905 18.0262 90.2197 17.704V17.6022H96.3956V16.9818C96.3956 14.3337 94.8771 12.667 92.4604 12.667C89.9975 12.667 88.4141 14.4448 88.4141 17.1948C88.4141 19.9263 89.9882 21.6392 92.5345 21.6392ZM94.5993 16.3429H90.229C90.229 15.7535 90.4631 15.1883 90.8798 14.7716C91.2966 14.3548 91.8618 14.1207 92.4512 14.1207C92.7415 14.1138 93.0301 14.1672 93.2987 14.2774C93.5674 14.3876 93.8103 14.5523 94.0122 14.7611C94.214 14.9699 94.3704 15.2183 94.4714 15.4905C94.5725 15.7628 94.616 16.053 94.5993 16.3429Z" fill="white"/>
<path d="M26.8864 2.93555H26.1178V3.71332H26.9141C27.7197 3.71332 28.1734 4.06518 28.1734 4.63925C28.1734 5.20406 27.6919 5.60221 26.9419 5.60221C26.2012 5.60221 25.6919 5.25036 25.6456 4.6948H24.7752C24.8014 4.95065 24.8789 5.19861 25.0029 5.42391C25.1269 5.64921 25.295 5.84725 25.4972 6.00622C25.6994 6.16519 25.9315 6.28185 26.1797 6.34924C26.4279 6.41664 26.6871 6.43339 26.9419 6.39851C27.1965 6.43071 27.455 6.4117 27.7022 6.3426C27.9493 6.2735 28.1802 6.15569 28.3812 5.99611C28.5821 5.83653 28.7492 5.63839 28.8725 5.41333C28.9959 5.18827 29.073 4.94083 29.0993 4.68555C29.1119 4.33096 28.9835 3.98582 28.7423 3.72557C28.5012 3.46532 28.1668 3.31112 27.8123 3.29666V3.21332C28.1103 3.1459 28.3763 2.97888 28.5666 2.73983C28.7568 2.50078 28.8598 2.20401 28.8586 1.89851C28.8586 0.981842 28.0623 0.352212 26.9234 0.352212C26.6774 0.31999 26.4275 0.338794 26.1891 0.407451C25.9507 0.476109 25.7291 0.593147 25.538 0.751266C25.3468 0.909384 25.1903 1.10519 25.0782 1.32647C24.9661 1.54775 24.9008 1.78976 24.8864 2.0374H25.7382C25.7518 1.90067 25.793 1.76812 25.8591 1.64771C25.9253 1.52729 26.0152 1.42152 26.1233 1.33675C26.2314 1.25197 26.3556 1.18995 26.4883 1.15442C26.6211 1.11889 26.7596 1.11058 26.8956 1.12999C27.5808 1.12999 27.979 1.47258 27.979 2.00962C27.9724 2.14335 27.9382 2.27428 27.8786 2.3942C27.8191 2.51412 27.7354 2.62044 27.6328 2.7065C27.5302 2.79256 27.411 2.85651 27.2825 2.89433C27.1541 2.93215 27.0192 2.94303 26.8864 2.92629V2.93555Z" fill="white"/>
<path fill-rule="evenodd" clip-rule="evenodd" d="M31.6919 3.73163C30.6641 3.79644 30.0808 4.25014 30.0808 5.02792C30.0825 5.2105 30.1222 5.39072 30.1973 5.55711C30.2725 5.7235 30.3815 5.87241 30.5174 5.99436C30.6533 6.1163 30.8131 6.20861 30.9866 6.26541C31.1601 6.3222 31.3436 6.34223 31.5252 6.32422C31.7832 6.33679 32.0398 6.28088 32.2691 6.16216C32.4984 6.04344 32.6922 5.86615 32.8308 5.64829H32.9049V6.2594H33.7289V3.28718C33.7289 2.36126 33.1178 1.82422 32.0252 1.82422C31.0345 1.82422 30.3308 2.3057 30.2475 3.0557H31.0808C31.1734 2.74089 31.5067 2.56496 31.979 2.56496C32.5715 2.56496 32.8771 2.82422 32.8771 3.28718V3.65755L31.6919 3.73163ZM32.8771 4.28718V4.65755C32.8691 4.79566 32.8331 4.9307 32.7713 5.05444C32.7094 5.17817 32.623 5.28801 32.5173 5.37725C32.4116 5.46649 32.2888 5.53326 32.1565 5.5735C32.0241 5.61373 31.885 5.62658 31.7475 5.61126C31.2845 5.61126 30.9419 5.37977 30.9419 4.99089C30.9419 4.602 31.2197 4.39829 31.8123 4.36126L32.8771 4.29644V4.28718Z" fill="white"/>
<path d="M36.0067 2.63921V6.25958H35.1456V1.91699H38.016V2.64847H36.0067V2.63921Z" fill="white"/>
<path fill-rule="evenodd" clip-rule="evenodd" d="M41.4141 6.33394C42.516 6.33394 43.2104 5.47282 43.2104 4.08394C43.2104 2.69505 42.516 1.84319 41.4049 1.84319C41.1276 1.83664 40.8539 1.90663 40.6137 2.04547C40.3736 2.18432 40.1764 2.38664 40.0438 2.63023H39.9789V1.91727H39.1456V7.71356H40.0067V5.60245H40.0808C40.2092 5.84024 40.403 6.03633 40.6393 6.16758C40.8755 6.29883 41.1444 6.35977 41.4141 6.34319V6.33394ZM41.1641 2.61171C41.8956 2.61171 42.3308 3.16727 42.3308 4.09319C42.3308 5.00986 41.8956 5.56542 41.1641 5.56542C40.4419 5.56542 39.9975 5.0006 39.9975 4.08394C39.9975 3.17653 40.4419 2.61171 41.1641 2.61171Z" fill="white"/>
<path d="M44.3586 7.82467V7.08392C44.4512 7.09318 44.5438 7.10244 44.6364 7.09318C44.8187 7.10775 45 7.05433 45.1453 6.94321C45.2906 6.83209 45.3897 6.67113 45.4234 6.49133L45.4882 6.27837L43.9141 1.91726H44.8493L45.9419 5.37096H46.0067L47.0993 1.91726H48.0067L46.3771 6.44504C46.0067 7.50059 45.5901 7.83392 44.7104 7.83392L44.3493 7.82467H44.3586ZM49.5253 5.02837H48.6734C48.7567 5.908 49.5253 6.34318 50.479 6.34318C51.553 6.34318 52.2567 5.78763 52.2567 4.97281C52.2609 4.73294 52.1761 4.50001 52.0189 4.31883C51.8616 4.13764 51.6429 4.021 51.4049 3.99133V3.92652C51.6046 3.87785 51.7817 3.76212 51.9064 3.59865C52.0311 3.43519 52.0959 3.23389 52.0901 3.02837C52.0901 2.29689 51.4975 1.82467 50.4604 1.82467C50.0645 1.77144 49.6636 1.87538 49.3434 2.11422C49.0232 2.35306 48.8093 2.7078 48.7475 3.10244H49.5808C49.6364 2.75985 49.9882 2.55615 50.4604 2.55615C50.9882 2.55615 51.2475 2.79689 51.2475 3.1117C51.2475 3.48207 50.979 3.68578 50.4604 3.68578H49.8215V4.35244H50.4697C51.0808 4.35244 51.3956 4.54689 51.3956 4.97281C51.3956 5.3617 51.0438 5.62096 50.4697 5.62096C49.9697 5.62096 49.6178 5.408 49.5253 5.02837ZM53.4882 6.26911V1.91726H54.3401V4.908H54.4049L56.4049 1.91726H57.2567V6.26911H56.4049V3.24133H56.3401L54.3401 6.26911H53.4882ZM60.5808 2.63948H61.9512V1.91726H58.3493V2.63948H59.7197V6.25985H60.5808V2.63948Z" fill="white"/>
<path fill-rule="evenodd" clip-rule="evenodd" d="M66.5715 5.08356C66.4561 5.48272 66.2031 5.82814 65.8574 6.05863C65.5117 6.28911 65.0955 6.38979 64.6827 6.34282C64.3963 6.35088 64.1117 6.29648 63.8486 6.18341C63.5854 6.07033 63.35 5.90129 63.1588 5.68804C62.9676 5.47479 62.8251 5.22245 62.7413 4.94856C62.6574 4.67468 62.6343 4.38582 62.6734 4.10208C62.6349 3.8166 62.6582 3.52617 62.7418 3.2505C62.8254 2.97482 62.9673 2.72034 63.1578 2.50431C63.3484 2.28828 63.5832 2.11575 63.8463 1.99843C64.1094 1.8811 64.3946 1.82171 64.6827 1.8243C65.8864 1.8243 66.6271 2.65763 66.6271 4.01874V4.31504H63.553V4.3706C63.5401 4.52976 63.5606 4.68986 63.6131 4.84066C63.6656 4.99147 63.7489 5.12968 63.8579 5.24644C63.9668 5.36321 64.0989 5.45597 64.2457 5.5188C64.3925 5.58163 64.5508 5.61315 64.7104 5.61134C64.9161 5.6359 65.1245 5.59886 65.3091 5.50491C65.4937 5.41095 65.6463 5.26431 65.7475 5.08356H66.5715ZM63.553 3.68541H65.7475C65.7593 3.5388 65.74 3.39135 65.6909 3.25268C65.6419 3.11401 65.5641 2.98725 65.4628 2.88065C65.3614 2.77406 65.2388 2.69003 65.1027 2.63405C64.9667 2.57807 64.8204 2.5514 64.6734 2.55578C64.5251 2.55453 64.3781 2.58295 64.241 2.6394C64.1039 2.69584 63.9795 2.77915 63.8751 2.88442C63.7707 2.98969 63.6884 3.11479 63.6331 3.25236C63.5778 3.38992 63.5506 3.53716 63.553 3.68541ZM72.1734 1.91689H70.2104V6.26874H72.1919C73.1456 6.26874 73.7197 5.76874 73.7197 5.00948C73.7226 4.75598 73.6282 4.51101 73.456 4.32499C73.2837 4.13897 73.0467 4.02605 72.7938 4.00948V3.93541C73.0028 3.89054 73.1898 3.77473 73.3231 3.60765C73.4565 3.44056 73.5279 3.23249 73.5253 3.01874C73.5253 2.34282 73.0253 1.90763 72.1734 1.90763V1.91689ZM71.0623 3.69467V2.5743H72.0067C72.4697 2.5743 72.6827 2.78726 72.6827 3.12986C72.6827 3.50023 72.4327 3.69467 71.9141 3.69467H71.0623ZM71.0623 5.60208V4.33356H71.979C72.553 4.33356 72.8586 4.53726 72.8586 4.97245C72.8586 5.37986 72.5808 5.60208 72.0808 5.60208H71.0623Z" fill="white"/>
</g>
</svg>
