<svg width="28" height="28" viewBox="0 0 28 28" fill="none" xmlns="http://www.w3.org/2000/svg">
<path d="M24.6224 7.58175H15.3835V0.0462952H1.59872V21.2364H12.4306V27.0463H26.2129V7.58175H24.6224ZM13.7929 7.58175H12.4306V19.6458H3.19418V1.63439H13.7954V7.58175H13.7929ZM24.6224 25.4557H14.0212V9.17475H24.6224V25.4557Z" fill="#1C2D38"/>
<path d="M5.6659 13.5978H11.3384V14.4128H5.6659V13.5978ZM5.6659 9.90621H11.3384V10.7211H5.6659V9.90621ZM5.6659 6.21457H11.3384V7.02948H5.6659V6.21457ZM16.4659 20.3135H22.1384V21.1284H16.4659V20.3135ZM16.4659 16.6071H22.1384V17.422H16.4659V16.6071ZM16.4659 12.9008H22.1384V13.7157H16.4659V12.9008Z" fill="#1C2D38"/>
</svg>
