<svg width="20" height="23" viewBox="0 0 20 23" fill="none" xmlns="http://www.w3.org/2000/svg">
<path d="M17.606 0.546295H2.60596C1.77753 0.546295 1.10596 1.21787 1.10596 2.0463V20.0463C1.10596 20.8747 1.77753 21.5463 2.60596 21.5463H17.606C18.4344 21.5463 19.106 20.8747 19.106 20.0463V2.0463C19.106 1.21787 18.4344 0.546295 17.606 0.546295Z" stroke="#1C2D38"/>
<path d="M15.218 7.0123V4.0863H5.07295L4.95795 4.0903V4.2093C4.95695 4.5683 4.95595 4.9073 4.96495 5.2533V5.2943L4.99295 5.3263C5.88295 6.3883 6.79495 7.4663 7.67695 8.5093L8.78295 9.8183H8.77395L9.48995 10.6653L9.79595 11.0613L9.49395 11.4523L7.85595 13.4013C6.88095 14.5523 5.92795 15.6783 4.99295 16.7943L4.96595 16.8263V16.8673C4.95595 17.2133 4.95695 17.5533 4.95795 17.9183V18.0353H15.218V15.1093H14.128V16.9283H6.33095L8.51495 14.3293L8.71795 14.0903C9.54895 13.1093 10.381 12.1263 11.219 11.1433L11.252 11.1043L11.27 11.0673L11.269 11.0663L11.281 11.0513L11.219 10.9773C10.383 9.9973 9.55395 9.0183 8.72595 8.0403L6.33095 5.1923H14.127V7.0113L15.218 7.0123Z" fill="#1C2D38"/>
</svg>
