<svg width="35" height="28" viewBox="0 0 35 28" fill="none" xmlns="http://www.w3.org/2000/svg">
<path d="M1.28601 1.0463H6.59135L11.6358 19.0463H30.286" stroke="#1C2D38" stroke-width="2" stroke-linecap="round" stroke-linejoin="round"/>
<path d="M17.286 27.0463C18.9429 27.0463 20.286 25.7032 20.286 24.0463C20.286 22.3894 18.9429 21.0463 17.286 21.0463C15.6291 21.0463 14.286 22.3894 14.286 24.0463C14.286 25.7032 15.6291 27.0463 17.286 27.0463Z" fill="#1C2D38"/>
<path d="M27.286 27.0463C28.9429 27.0463 30.286 25.7032 30.286 24.0463C30.286 22.3894 28.9429 21.0463 27.286 21.0463C25.6291 21.0463 24.286 22.3894 24.286 24.0463C24.286 25.7032 25.6291 27.0463 27.286 27.0463Z" fill="#1C2D38"/>
<path d="M13.6526 14.5657L10.9635 4.56566C10.6218 3.29501 11.5791 2.0463 12.8949 2.0463H31.6771C32.9929 2.0463 33.9502 3.29501 33.6085 4.56566L30.9194 14.5657C30.6846 15.4392 29.8926 16.0463 28.9881 16.0463H15.5839C14.6794 16.0463 13.8874 15.4392 13.6526 14.5657Z" fill="#E30613"/>
</svg>
