<svg width="17" height="18" viewBox="0 0 17 18" fill="none" xmlns="http://www.w3.org/2000/svg">
<path d="M0.0317383 1.66768C0.0317383 1.44604 0.119786 1.23347 0.276513 1.07675C0.43324 0.920018 0.645807 0.83197 0.867453 0.83197H3.36745C3.58786 0.833854 3.79859 0.922733 3.95378 1.07926C4.10897 1.23578 4.19603 1.44727 4.19602 1.66768V4.16768C4.19416 4.38686 4.10626 4.59653 3.95128 4.75151C3.79629 4.9065 3.58663 4.99439 3.36745 4.99626H0.867453C0.647039 4.99626 0.435548 4.9092 0.279025 4.75401C0.122501 4.59883 0.0336222 4.38809 0.0317383 4.16768V1.66768ZM0.0317383 7.79626C0.0317383 7.57461 0.119786 7.36204 0.276513 7.20532C0.43324 7.04859 0.645807 6.96054 0.867453 6.96054H3.36745C3.58786 6.96243 3.79859 7.0513 3.95378 7.20783C4.10897 7.36435 4.19603 7.57584 4.19602 7.79626V10.2963C4.19603 10.5167 4.10897 10.7282 3.95378 10.8847C3.79859 11.0412 3.58786 11.1301 3.36745 11.132H0.867453C0.645807 11.132 0.43324 11.0439 0.276513 10.8872C0.119786 10.7305 0.0317383 10.5179 0.0317383 10.2963V7.79626ZM0.0317383 13.9248C0.0336222 13.7044 0.122501 13.4937 0.279025 13.3385C0.435548 13.1833 0.647039 13.0962 0.867453 13.0963H3.36745C3.58663 13.0981 3.79629 13.186 3.95128 13.341C4.10626 13.496 4.19416 13.7057 4.19602 13.9248V16.4248C4.19603 16.6452 4.10897 16.8567 3.95378 17.0133C3.79859 17.1698 3.58786 17.2587 3.36745 17.2605H0.867453C0.645807 17.2605 0.43324 17.1725 0.276513 17.0158C0.119786 16.859 0.0317383 16.6465 0.0317383 16.4248V13.9248ZM6.16031 1.66768C6.16031 1.44604 6.24836 1.23347 6.40508 1.07675C6.56181 0.920018 6.77438 0.83197 6.99602 0.83197H9.49602C9.71767 0.83197 9.93024 0.920018 10.087 1.07675C10.2437 1.23347 10.3317 1.44604 10.3317 1.66768V4.16768C10.3299 4.38809 10.241 4.59883 10.0845 4.75401C9.92793 4.9092 9.71644 4.99626 9.49602 4.99626H6.99602C6.77561 4.99626 6.56412 4.9092 6.4076 4.75401C6.25107 4.59883 6.16219 4.38809 6.16031 4.16768V1.66768ZM6.16031 7.79626C6.16031 7.57461 6.24836 7.36204 6.40508 7.20532C6.56181 7.04859 6.77438 6.96054 6.99602 6.96054H9.49602C9.71767 6.96054 9.93024 7.04859 10.087 7.20532C10.2437 7.36204 10.3317 7.57461 10.3317 7.79626V10.2963C10.3317 10.5179 10.2437 10.7305 10.087 10.8872C9.93024 11.0439 9.71767 11.132 9.49602 11.132H6.99602C6.77438 11.132 6.56181 11.0439 6.40508 10.8872C6.24836 10.7305 6.16031 10.5179 6.16031 10.2963V7.79626ZM6.16031 13.9248C6.16219 13.7044 6.25107 13.4937 6.4076 13.3385C6.56412 13.1833 6.77561 13.0962 6.99602 13.0963H9.49602C9.71644 13.0962 9.92793 13.1833 10.0845 13.3385C10.241 13.4937 10.3299 13.7044 10.3317 13.9248V16.4248C10.3317 16.6465 10.2437 16.859 10.087 17.0158C9.93024 17.1725 9.71767 17.2605 9.49602 17.2605H6.99602C6.77438 17.2605 6.56181 17.1725 6.40508 17.0158C6.24836 16.859 6.16031 16.6465 6.16031 16.4248V13.9248ZM12.296 1.66768C12.296 1.44727 12.3831 1.23578 12.5383 1.07926C12.6935 0.922733 12.9042 0.833854 13.1246 0.83197H15.6246C15.7343 0.83197 15.843 0.853587 15.9444 0.895585C16.0458 0.937584 16.1379 0.999142 16.2155 1.07675C16.2931 1.15435 16.3547 1.24648 16.3967 1.34787C16.4387 1.44926 16.4603 1.55794 16.4603 1.66768V4.16768C16.4584 4.38809 16.3695 4.59883 16.213 4.75401C16.0565 4.9092 15.845 4.99626 15.6246 4.99626H13.1246C12.9054 4.99439 12.6958 4.9065 12.5408 4.75151C12.3858 4.59653 12.2979 4.38686 12.296 4.16768V1.66768ZM12.296 7.79626C12.296 7.57584 12.3831 7.36435 12.5383 7.20783C12.6935 7.0513 12.9042 6.96243 13.1246 6.96054H15.6246C15.8462 6.96054 16.0588 7.04859 16.2155 7.20532C16.3723 7.36204 16.4603 7.57461 16.4603 7.79626V10.2963C16.4603 10.5179 16.3723 10.7305 16.2155 10.8872C16.0588 11.0439 15.8462 11.132 15.6246 11.132H13.1246C12.9042 11.1301 12.6935 11.0412 12.5383 10.8847C12.3831 10.7282 12.296 10.5167 12.296 10.2963V7.79626ZM12.296 13.9248C12.2979 13.7057 12.3858 13.496 12.5408 13.341C12.6958 13.186 12.9054 13.0981 13.1246 13.0963H15.6246C15.845 13.0962 16.0565 13.1833 16.213 13.3385C16.3695 13.4937 16.4584 13.7044 16.4603 13.9248V16.4248C16.4603 16.6465 16.3723 16.859 16.2155 17.0158C16.0588 17.1725 15.8462 17.2605 15.6246 17.2605H13.1246C12.9042 17.2587 12.6935 17.1698 12.5383 17.0133C12.3831 16.8567 12.296 16.6452 12.296 16.4248V13.9248Z" fill="white"/>
</svg>
