<svg width="37" height="27" viewBox="0 0 37 27" fill="none" xmlns="http://www.w3.org/2000/svg">
<path d="M11.54 9.46222L10.1689 14.8763C9.52832 17.431 8.90332 19.2825 8.29395 20.431C7.68457 21.5794 6.96973 22.4271 6.14941 22.9739C5.33691 23.5286 4.40332 23.806 3.34863 23.806C2.68457 23.806 2.19629 23.6771 1.88379 23.4193C1.57129 23.1693 1.41504 22.8724 1.41504 22.5286C1.41504 22.2083 1.54395 21.931 1.80176 21.6966C2.05957 21.4622 2.39941 21.345 2.82129 21.345C3.17285 21.345 3.44238 21.4349 3.62988 21.6146C3.81738 21.7943 3.91113 22.0208 3.91113 22.2943C3.91113 22.5443 3.85254 22.7278 3.73535 22.845C3.61816 22.97 3.55957 23.0521 3.55957 23.0911L3.61816 23.1732C3.66504 23.2122 3.71973 23.2318 3.78223 23.2318C4.0166 23.2318 4.21582 23.1575 4.37988 23.0091C4.79395 22.6419 5.10254 22.1966 5.30566 21.6732C5.44629 21.3138 5.71582 20.3646 6.11426 18.8255L8.50488 9.46222H6.87598L7.2627 8.09113C7.84863 8.09894 8.27441 8.02472 8.54004 7.86847C8.80566 7.71222 9.08691 7.36066 9.38379 6.81378C10.2432 5.22784 11.1494 4.09113 12.1025 3.40363C13.0557 2.71613 14.1182 2.37238 15.29 2.37238C16.04 2.37238 16.583 2.51691 16.9189 2.80597C17.2627 3.09503 17.4346 3.47003 17.4346 3.93097C17.4346 4.33722 17.3213 4.66144 17.0947 4.90363C16.8682 5.138 16.5869 5.25519 16.251 5.25519C15.9385 5.25519 15.6807 5.15753 15.4775 4.96222C15.2744 4.76691 15.1729 4.53253 15.1729 4.25909C15.1729 4.06378 15.2354 3.85675 15.3604 3.638C15.4932 3.41925 15.5596 3.27081 15.5596 3.19269C15.5596 3.10675 15.5283 3.03644 15.4658 2.98175C15.4111 2.92706 15.3369 2.89972 15.2432 2.89972C14.7822 2.89972 14.3096 3.18488 13.8252 3.75519C13.0283 4.66925 12.3877 6.11456 11.9033 8.09113H13.6025L13.1924 9.46222H11.54Z" fill="#1C2D38"/>
<path d="M22.9166 6.08136L22.7409 6.61847C21.8099 7.28253 21.0384 8.05402 20.4264 8.93292C19.4889 10.2871 18.7239 11.9375 18.1315 13.8841C17.5455 15.8242 17.2526 17.6471 17.2526 19.3528C17.2526 20.4401 17.5097 21.612 18.0241 22.8685L17.858 23.4349C16.1067 21.0911 15.2311 18.7539 15.2311 16.4232C15.2311 15.082 15.5241 13.7539 16.11 12.4388C16.8001 10.9023 17.8222 9.53839 19.1764 8.34698C20.2116 7.43553 21.4583 6.68032 22.9166 6.08136ZM21.7936 11.1595L25.2018 10.5735C25.8203 11.5436 26.2565 12.6113 26.5104 13.7767C27.1484 12.8327 27.6302 12.1719 27.9557 11.7943C28.3919 11.2864 28.75 10.9577 29.0299 10.8079C29.3164 10.6517 29.6191 10.5735 29.9381 10.5735C30.2962 10.5735 30.5696 10.6712 30.7584 10.8665C30.9537 11.0618 31.0514 11.3255 31.0514 11.6575C31.0514 11.97 30.9537 12.2272 30.7584 12.429C30.5696 12.6243 30.332 12.722 30.0455 12.722C29.8372 12.722 29.5963 12.6862 29.3229 12.6146C29.056 12.5364 28.8704 12.4974 28.7662 12.4974C28.4928 12.4974 28.2324 12.595 27.985 12.7903C27.6465 13.0573 27.2298 13.6269 26.735 14.4993C27.2884 16.4525 27.7311 17.6439 28.0631 18.0735C28.2584 18.3275 28.457 18.4544 28.6588 18.4544C28.8281 18.4544 28.9746 18.4121 29.0983 18.3275C29.2871 18.1907 29.5768 17.8489 29.9674 17.3021L30.319 17.5071C29.7461 18.4316 29.1862 19.0827 28.6393 19.4603C28.2226 19.7532 27.8125 19.8997 27.4088 19.8997C26.9922 19.8997 26.6438 19.8086 26.3639 19.6263C26.0905 19.4375 25.8463 19.1347 25.6315 18.7181C25.4166 18.2949 25.1627 17.6211 24.8698 16.6966C24.108 17.6666 23.5091 18.3763 23.0729 18.8255C22.6432 19.2682 22.2851 19.5579 21.9987 19.6946C21.7122 19.8314 21.4062 19.8997 21.0807 19.8997C20.7422 19.8997 20.4752 19.8021 20.2799 19.6068C20.0781 19.4114 19.9772 19.1575 19.9772 18.845C19.9772 18.513 20.0846 18.2396 20.2994 18.0247C20.5143 17.8099 20.7877 17.7025 21.1198 17.7025C21.2955 17.7025 21.4941 17.7545 21.7155 17.8587C22.041 18.015 22.2754 18.0931 22.4186 18.0931C22.6074 18.0931 22.7767 18.054 22.9264 17.9759C23.1217 17.8782 23.3691 17.6666 23.6686 17.3411C23.8509 17.1393 24.1862 16.7096 24.6744 16.0521C24.0494 13.7344 23.5612 12.3476 23.2096 11.8919C22.9882 11.5989 22.7083 11.4525 22.3698 11.4525C22.194 11.4525 21.9791 11.4785 21.7252 11.5306L21.7936 11.1595ZM28.6295 23.4349L28.8053 22.8978C29.554 22.3639 30.1888 21.778 30.7096 21.14C31.2239 20.5019 31.7545 19.6198 32.3014 18.4935C32.8483 17.3607 33.2942 16.1497 33.6393 14.8607C34.082 13.1875 34.3034 11.6217 34.3034 10.1634C34.3034 9.07615 34.0462 7.90102 33.5319 6.638L33.6881 6.08136C35.4394 8.42511 36.3151 10.7591 36.3151 13.0833C36.3151 14.431 36.0221 15.7623 35.4362 17.0775C34.7526 18.6074 33.7304 19.9681 32.3698 21.1595C31.3346 22.0709 30.0879 22.8294 28.6295 23.4349Z" fill="#1C2D38"/>
</svg>
