<svg width="101" height="25" viewBox="0 0 101 25" fill="none" xmlns="http://www.w3.org/2000/svg">
<mask id="mask0_1_632" style="mask-type:luminance" maskUnits="userSpaceOnUse" x="0" y="0" width="101" height="25">
<path d="M0.265991 0.0463867H100.266V24.1205H0.265991V0.0463867Z" fill="white"/>
</mask>
<g mask="url(#mask0_1_632)">
<path fill-rule="evenodd" clip-rule="evenodd" d="M38.3678 3.47211C38.374 3.83426 38.3078 4.19399 38.1732 4.53024C38.0386 4.86649 37.8382 5.17249 37.5838 5.43032C37.3295 5.68815 37.0262 5.89263 36.6918 6.03177C36.3574 6.17091 35.9986 6.24192 35.6364 6.24063C35.2734 6.24194 34.9138 6.17064 34.5788 6.03093C34.2437 5.89121 33.94 5.68591 33.6855 5.42709C33.431 5.16826 33.2308 4.86116 33.0968 4.52383C32.9627 4.1865 32.8975 3.82577 32.9049 3.46285C32.8975 3.09994 32.9627 2.73921 33.0968 2.40188C33.2308 2.06455 33.431 1.75744 33.6855 1.49862C33.94 1.2398 34.2437 1.03449 34.5788 0.894779C34.9138 0.755065 35.2734 0.683766 35.6364 0.685076C36.4049 0.685076 37.0623 0.962854 37.5808 1.49989C38.1086 2.03693 38.3678 2.70359 38.3678 3.47211ZM34.2938 4.88878C33.9419 4.51841 33.7567 4.05545 33.7567 3.47211C33.7567 2.88878 33.9419 2.41656 34.303 2.04619C34.6734 1.67582 35.1086 1.49063 35.6364 1.49063C36.1734 1.49063 36.6086 1.67582 36.979 2.04619C37.3401 2.41656 37.5252 2.87952 37.5252 3.47211C37.5252 4.04619 37.3401 4.51841 36.9697 4.88878C36.6086 5.25915 36.1734 5.44434 35.6364 5.44434C35.1086 5.44434 34.6734 5.25915 34.303 4.88878H34.2938ZM27.6734 5.32397C28.0623 4.96285 28.2752 4.361 28.2752 3.49063V0.805447H31.8864V5.32397H32.4512V7.22211H31.6456V6.12952H27.9141V7.22211H27.1178V5.32397H27.6734ZM29.0993 3.43508V3.50915C29.0993 4.23137 28.9697 4.84248 28.6827 5.32397H31.0438V1.62026H29.0993V3.43508Z" fill="white"/>
<path d="M42.803 5.98151C42.4291 6.15554 42.021 6.2441 41.6086 6.24077C40.8308 6.24077 40.1734 5.97225 39.6456 5.44447C39.3856 5.18729 39.1808 4.8797 39.0439 4.54056C38.9069 4.20142 38.8407 3.83789 38.8493 3.47225C38.8493 2.68521 39.1178 2.01854 39.6456 1.49077C39.9014 1.23143 40.2074 1.02703 40.5449 0.890108C40.8825 0.753184 41.2444 0.686612 41.6086 0.694471C42.4049 0.694471 43.0715 0.981508 43.5623 1.56484L43.6178 1.62966L43.5623 1.68521L43.0345 2.19447L42.9697 2.1204C42.8078 1.91697 42.6001 1.75472 42.3636 1.64691C42.127 1.53909 41.8683 1.48876 41.6086 1.50003C41.0715 1.50003 40.6178 1.68521 40.2475 2.03706C39.8771 2.40743 39.6919 2.8704 39.6919 3.47225C39.6919 4.06484 39.8771 4.5278 40.2475 4.89817C40.6178 5.25928 41.0715 5.43521 41.6086 5.43521C41.8989 5.43726 42.1859 5.37429 42.4487 5.25091C42.7114 5.12754 42.9433 4.9469 43.1271 4.72225L43.1919 4.64817L43.766 5.23151L43.7197 5.28706C43.4697 5.58336 43.1641 5.81484 42.803 5.98151ZM46.4141 1.6204V6.12966H45.5808V1.61114H44.1456V0.805582H47.8493V1.61114H46.4141V1.6204ZM50.266 3.65743L51.4697 0.814841H52.4327L50.4327 5.2778C50.1549 5.90743 49.7289 6.25003 49.1549 6.25003C48.9882 6.25003 48.803 6.21299 48.6086 6.12966L48.5438 6.10188L48.5623 6.0278L48.766 5.31484L48.8586 5.36114C48.9512 5.41669 49.0623 5.45373 49.1641 5.45373C49.303 5.45373 49.4049 5.41669 49.4697 5.3704C49.5599 5.29272 49.6299 5.19419 49.6734 5.08336L49.8493 4.71299L48.0715 0.8241H49.0438L50.266 3.65743ZM52.9697 6.12966V0.805582H56.8586V6.12966H56.0252V1.61114H53.803V6.12966H52.9697ZM57.8678 6.12966V0.805582H58.7012V3.01854H61.1086V0.805582H61.9419V6.12966H61.1086V3.80558H58.7012V6.1204H57.8678V6.12966Z" fill="white"/>
<path fill-rule="evenodd" clip-rule="evenodd" d="M68.0808 3.47216C68.087 3.83431 68.0208 4.19404 67.8862 4.53029C67.7516 4.86654 67.5512 5.17254 67.2968 5.43037C67.0424 5.68821 66.7391 5.89268 66.4047 6.03182C66.0703 6.17096 65.7115 6.24197 65.3493 6.24068C64.9863 6.24199 64.6267 6.17069 64.2917 6.03098C63.9567 5.89127 63.653 5.68596 63.3985 5.42714C63.144 5.16832 62.9438 4.86121 62.8097 4.52388C62.6757 4.18655 62.6104 3.82582 62.6178 3.4629C62.6104 3.09999 62.6757 2.73926 62.8097 2.40193C62.9438 2.0646 63.144 1.75749 63.3985 1.49867C63.653 1.23985 63.9567 1.03454 64.2917 0.89483C64.6267 0.755116 64.9863 0.683817 65.3493 0.685127C65.7127 0.682543 66.0728 0.752974 66.4084 0.892241C66.744 1.03151 67.0483 1.23677 67.303 1.49585C67.5578 1.75494 67.7579 2.06255 67.8915 2.40046C68.0251 2.73836 68.0895 3.09965 68.0808 3.4629V3.47216ZM63.4604 3.47216C63.4604 4.04624 63.6456 4.51846 64.016 4.88883C64.3864 5.2592 64.8123 5.44439 65.3493 5.44439C65.8771 5.44439 66.3215 5.2592 66.6827 4.88883C67.053 4.51846 67.2382 4.0555 67.2382 3.47216C67.2382 2.88883 67.053 2.41661 66.6827 2.04624C66.3123 1.67587 65.8771 1.49068 65.3493 1.49068C64.8123 1.49068 64.3771 1.67587 64.0067 2.04624C63.6456 2.41661 63.4697 2.87957 63.4604 3.47216ZM73.5253 3.37957C73.729 3.47216 73.9049 3.60179 74.0438 3.78698C74.2197 4.0092 74.3123 4.27772 74.3123 4.57402C74.3123 5.01846 74.1456 5.39809 73.8123 5.68513C73.5003 5.97438 73.0896 6.13339 72.6641 6.12957H70.6178V0.805498H72.5623C72.979 0.805498 73.3586 0.953646 73.6641 1.23142C73.9078 1.44683 74.0681 1.74091 74.1172 2.0624C74.1662 2.38389 74.1009 2.7124 73.9327 2.99068C73.8215 3.14809 73.6919 3.26846 73.5253 3.37031V3.37957ZM71.4512 5.32402H72.6919C72.9234 5.32402 73.0993 5.24068 73.2475 5.08328C73.3834 4.94109 73.4596 4.75219 73.4604 4.5555C73.4577 4.36011 73.3778 4.17374 73.2382 4.03698C73.1649 3.95928 73.0756 3.89836 72.9765 3.8584C72.8774 3.81844 72.7709 3.8004 72.6641 3.8055H71.4512V5.32402ZM71.4512 3.0092H72.5623C72.7938 3.0092 72.9604 2.94439 73.0993 2.79624C73.2287 2.66556 73.3019 2.48941 73.303 2.3055C73.302 2.12608 73.2324 1.95385 73.1086 1.82402C73.0436 1.75197 72.9633 1.69544 72.8735 1.65858C72.7838 1.62172 72.6869 1.60548 72.5901 1.61105H71.4512V3.01846V3.0092Z" fill="white"/>
<path d="M83.4327 20.6201H85.0252V9.89792H83.4327V20.6201ZM97.8401 13.7683L96.0067 18.4072H95.9512L94.053 13.759H92.3215L95.1827 20.259L93.553 23.8701H95.2197L99.6271 13.759H97.8401V13.7683ZM88.766 19.4072C88.2382 19.4072 87.516 19.1387 87.516 18.4905C87.516 17.6572 88.4234 17.3516 89.2104 17.3516C89.9141 17.3516 90.2382 17.4998 90.6734 17.7035C90.6152 18.1701 90.3899 18.5998 90.0392 18.913C89.6885 19.2263 89.2362 19.4018 88.766 19.4072ZM88.9604 13.5275C87.803 13.5275 86.5993 14.0368 86.1086 15.1664L87.5252 15.759C87.8308 15.1664 88.3956 14.972 88.9882 14.972C89.8215 14.972 90.6549 15.472 90.6734 16.3609V16.4627C90.1597 16.1922 89.5873 16.0523 89.0067 16.0553C87.4697 16.0553 85.9141 16.8887 85.9141 18.4627C85.9141 19.8979 87.1641 20.8238 88.5715 20.8238C89.6456 20.8238 90.2382 20.3424 90.6086 19.7775H90.6734V20.6109H92.2197V16.4905C92.2197 14.5924 90.7938 13.5275 88.9604 13.5275ZM79.0715 15.0646H76.7938V11.3887H79.0715C79.3155 11.3862 79.5576 11.432 79.7838 11.5234C80.01 11.6148 80.2159 11.75 80.3897 11.9212C80.5635 12.0924 80.7018 12.2963 80.7965 12.5211C80.8913 12.7459 80.9407 12.9873 80.9419 13.2312C80.9419 14.0646 80.266 15.0646 79.0715 15.0646ZM79.0252 9.89792H75.1919V20.6201H76.7938V16.5553H79.0252C80.803 16.5553 82.5438 15.2775 82.5438 13.222C82.5438 11.185 80.803 9.89792 79.0252 9.89792ZM58.1178 19.4072C57.0067 19.4072 56.0808 18.4813 56.0808 17.2035C56.0808 15.9257 57.0067 14.9812 58.1178 14.9812C59.2104 14.9812 60.0623 15.9257 60.0623 17.2035C60.0623 18.4813 59.2104 19.4072 58.1178 19.4072ZM59.9512 14.3609H59.8956C59.6524 14.0967 59.3556 13.8874 59.0251 13.7469C58.6946 13.6064 58.338 13.5379 57.979 13.5461C57.0341 13.5798 56.1398 13.9808 55.4861 14.6639C54.8325 15.3469 54.4711 16.2581 54.4789 17.2035C54.4712 18.1471 54.8332 19.0562 55.4873 19.7362C56.1414 20.4163 57.0358 20.8134 57.979 20.8424C58.8493 20.8424 59.5438 20.4535 59.8956 20.009H59.9512V20.5368C59.9512 21.9257 59.2104 22.6757 58.0067 22.6757C57.6071 22.6654 57.2196 22.5368 56.8932 22.306C56.5668 22.0752 56.3163 21.7527 56.1734 21.3794L54.7752 21.9627C55.0374 22.6035 55.4852 23.1513 56.061 23.5358C56.6368 23.9202 57.3144 24.1237 58.0067 24.1201C59.8864 24.1201 61.479 23.009 61.479 20.3238V13.7683H59.9512V14.3609ZM62.5808 20.6201H64.1827V9.89792H62.5808V20.6201ZM66.5438 17.0831C66.5262 16.8174 66.562 16.5508 66.6488 16.2991C66.7357 16.0474 66.872 15.8155 67.0496 15.6172C67.2273 15.4188 67.4428 15.2579 67.6835 15.144C67.9241 15.03 68.1851 14.9652 68.4512 14.9535C69.0901 14.9535 69.6271 15.2775 69.803 15.7313L66.5438 17.0831ZM71.516 15.8701C71.2197 15.0553 70.2938 13.5553 68.3956 13.5553C66.516 13.5553 64.9604 15.0275 64.9604 17.1942C64.9604 19.2313 66.5067 20.8424 68.5715 20.8424C70.2475 20.8424 71.2197 19.8238 71.6178 19.222L70.3771 18.3887C70.192 18.6999 69.929 18.9575 69.614 19.1361C69.299 19.3147 68.9429 19.4082 68.5808 19.4072C68.2085 19.4214 67.8405 19.323 67.525 19.1247C67.2094 18.9265 66.9611 18.6377 66.8123 18.2961L71.6827 16.2868L71.516 15.8701ZM32.6734 14.6664V16.2127H36.3771C36.3228 16.9372 36.0259 17.6222 35.5345 18.1572C35.1626 18.5375 34.7148 18.8355 34.2204 19.0317C33.7259 19.2279 33.1957 19.3179 32.6641 19.2961C32.1264 19.2949 31.5943 19.187 31.0985 18.9787C30.6028 18.7705 30.1533 18.4659 29.7761 18.0826C29.3989 17.6994 29.1014 17.2451 28.901 16.7462C28.7006 16.2472 28.6012 15.7134 28.6086 15.1757C28.6022 14.3804 28.8293 13.6008 29.2617 12.9333C29.694 12.2658 30.3127 11.7398 31.0411 11.4204C31.7695 11.1011 32.5755 11.0024 33.3594 11.1367C34.1433 11.2709 34.8706 11.6322 35.4512 12.1757L36.5438 11.0831C36.0326 10.5761 35.4253 10.1765 34.7574 9.90779C34.0896 9.63906 33.3747 9.50662 32.6549 9.51829C31.1451 9.51816 29.696 10.1128 28.6215 11.1734C27.547 12.2341 26.9336 13.6753 26.9141 15.185C26.9336 16.6946 27.547 18.1358 28.6215 19.1965C29.696 20.2571 31.1451 20.8517 32.6549 20.8516C34.3493 20.8516 35.6178 20.2961 36.6086 19.259C37.51 18.2765 37.9918 16.9807 37.9512 15.6479C37.9512 15.2775 37.9234 14.9535 37.8678 14.6757H32.6734V14.6664ZM42.1734 19.4072C41.0623 19.4072 40.1086 18.4905 40.1086 17.1942C40.1086 15.8794 41.0623 14.9812 42.1734 14.9812C43.2845 14.9812 44.2289 15.8794 44.2289 17.1942C44.2289 18.4905 43.2752 19.4072 42.1734 19.4072ZM42.1734 13.5461C41.6907 13.5361 41.2109 13.6234 40.7628 13.803C40.3146 13.9825 39.9072 14.2506 39.565 14.5911C39.2227 14.9316 38.9526 15.3377 38.7708 15.7849C38.589 16.2322 38.4992 16.7115 38.5067 17.1942C38.5017 17.6763 38.5933 18.1544 38.776 18.6005C38.9587 19.0466 39.2289 19.4516 39.5707 19.7916C39.9124 20.1316 40.3188 20.3997 40.7658 20.5802C41.2128 20.7607 41.6914 20.8498 42.1734 20.8424C42.6546 20.8486 43.1322 20.7585 43.5782 20.5775C44.0241 20.3964 44.4293 20.1281 44.7701 19.7882C45.1108 19.4483 45.3802 19.0438 45.5623 18.5983C45.7445 18.1528 45.8358 17.6755 45.8308 17.1942C45.8383 16.7123 45.7488 16.2337 45.5676 15.7871C45.3863 15.3405 45.117 14.9349 44.7758 14.5945C44.4345 14.2541 44.0282 13.9859 43.5812 13.8057C43.1341 13.6256 42.6553 13.5373 42.1734 13.5461ZM50.1641 19.4072C49.053 19.4072 48.0993 18.4905 48.0993 17.1942C48.0993 15.8794 49.053 14.9812 50.1641 14.9812C51.266 14.9812 52.2197 15.8794 52.2197 17.1942C52.2197 18.4905 51.266 19.4072 50.1641 19.4072ZM50.1641 13.5461C49.6814 13.5361 49.2017 13.6234 48.7535 13.803C48.3053 13.9825 47.898 14.2506 47.5557 14.5911C47.2135 14.9316 46.9434 15.3377 46.7615 15.7849C46.5797 16.2322 46.4899 16.7115 46.4975 17.1942C46.4925 17.6763 46.584 18.1544 46.7668 18.6005C46.9495 19.0466 47.2197 19.4516 47.5614 19.7916C47.9031 20.1316 48.3095 20.3997 48.7565 20.5802C49.2035 20.7607 49.6821 20.8498 50.1641 20.8424C50.6454 20.8486 51.123 20.7585 51.5689 20.5775C52.0148 20.3964 52.4201 20.1281 52.7608 19.7882C53.1016 19.4483 53.3709 19.0438 53.5531 18.5983C53.7352 18.1528 53.8265 17.6755 53.8215 17.1942C53.8291 16.7123 53.7395 16.2337 53.5583 15.7871C53.377 15.3405 53.1078 14.9349 52.7665 14.5945C52.4253 14.2541 52.019 13.9859 51.5719 13.8057C51.1248 13.6256 50.6461 13.5373 50.1641 13.5461Z" fill="white"/>
</g>
</svg>
