<svg width="12" height="15" viewBox="0 0 12 15" fill="none" xmlns="http://www.w3.org/2000/svg">
<path d="M10.746 5.4663C10.746 6.0163 10.466 6.8363 9.97597 7.8063C9.49597 8.7563 8.85597 9.78629 8.20597 10.7463C7.5051 11.7722 6.76797 12.7728 5.99597 13.7463C5.22494 12.7721 4.48783 11.7715 3.78597 10.7463C3.13597 9.78629 2.48597 8.7563 2.01597 7.8063C1.59888 7.08855 1.33659 6.29147 1.24597 5.4663C1.24597 3.0463 3.34597 1.0463 5.99597 1.0463C8.64597 1.0463 10.746 3.0463 10.746 5.4663Z" fill="#1C2D38" stroke="#1C2D38"/>
<path d="M5.99597 7.5463C7.10054 7.5463 7.99597 6.65086 7.99597 5.5463C7.99597 4.44173 7.10054 3.5463 5.99597 3.5463C4.8914 3.5463 3.99597 4.44173 3.99597 5.5463C3.99597 6.65086 4.8914 7.5463 5.99597 7.5463Z" fill="#F5F6F6"/>
</svg>
