<svg width="30" height="19" viewBox="0 0 30 19" fill="none" xmlns="http://www.w3.org/2000/svg">
<path d="M20.586 0.0463867C18.345 0.0463867 16.303 0.927387 14.764 2.37339C13.224 0.928387 11.184 0.0483867 8.94599 0.0483867H8.88999C4.12399 0.0803867 0.265991 4.09839 0.265991 9.04639C0.265991 14.0134 4.15499 18.0434 8.94499 18.0434C11.183 18.0434 13.223 17.1634 14.764 15.7184C14.4436 15.4136 14.1468 15.085 13.876 14.7354H15.669C15.3994 15.0776 15.105 15.3995 14.788 15.6984H14.786V15.7004C14.779 15.7064 14.771 15.7114 14.764 15.7194C16.304 17.1664 18.348 18.0464 20.59 18.0464C25.384 18.0454 29.267 14.0154 29.266 9.04639V9.04239C29.265 4.07339 25.378 0.0463867 20.586 0.0463867ZM13.976 3.30239H15.626C15.869 3.60739 16.096 3.92939 16.299 4.26639H13.356C13.544 3.94439 13.752 3.61439 13.975 3.30239H13.976ZM12.843 5.21239H16.798C16.94 5.52439 17.065 5.84539 17.172 6.17539H12.374C12.422 6.08239 12.589 5.70839 12.843 5.21239ZM8.46899 11.2034H7.43899L8.05299 7.87039L6.64299 11.2034H5.71099L5.53899 7.89339L4.92599 11.2034H3.99299L4.79099 6.86939H6.39799L6.47099 9.55339L7.61099 6.86939H9.28099L8.46899 11.2034ZM12.112 9.33139L11.892 10.5834L11.855 10.8074L11.831 10.9864L11.818 11.1064L11.806 11.2024H10.948L10.972 10.8374C10.715 11.1274 10.359 11.2624 9.89299 11.2624C9.34099 11.2624 8.96099 10.8694 8.96099 10.3014C8.96099 9.44339 9.62299 8.94139 10.763 8.94139C10.873 8.94139 11.021 8.95239 11.18 8.96939C11.205 8.85339 11.217 8.80439 11.217 8.73939C11.217 8.50739 11.033 8.42039 10.555 8.42039C10.26 8.42039 9.92899 8.45739 9.70899 8.51739L9.56199 8.55639L9.47599 8.57939L9.61099 7.78539C10.126 7.65039 10.457 7.59939 10.837 7.59939C11.72 7.59939 12.187 7.95839 12.187 8.63339C12.187 8.80839 12.174 8.93939 12.112 9.33139ZM14.162 7.59139C15.007 7.59139 15.547 8.09039 15.547 8.87139C15.547 9.13339 15.51 9.38539 15.423 9.74339H13.389C13.376 9.79739 13.376 9.82139 13.376 9.85539C13.376 10.2624 13.683 10.4704 14.271 10.4704C14.64 10.4704 14.971 10.4024 15.338 10.2474L15.167 11.1304C14.8275 11.2253 14.4765 11.2731 14.124 11.2724C12.972 11.2724 12.371 10.7304 12.371 9.69239C12.371 8.48239 13.131 7.59239 14.161 7.59239L14.162 7.59139ZM16.31 13.8094H13.23C13.0399 13.4989 12.8686 13.1774 12.717 12.8464H16.815C16.665 13.1794 16.496 13.5004 16.31 13.8094ZM18.196 8.48839C17.9478 8.45706 17.6981 8.43969 17.448 8.43639C17.116 8.43639 16.945 8.53339 16.945 8.72239C16.945 8.88739 16.994 8.92739 17.423 9.10639C17.95 9.32039 18.159 9.60439 18.159 10.0874C18.159 10.8924 17.656 11.2644 16.552 11.2644C16.269 11.26 15.9866 11.2393 15.706 11.2024L15.522 11.1674L15.473 11.1574L15.62 10.3444C15.951 10.4414 16.235 10.4844 16.553 10.4844C16.957 10.4844 17.141 10.3854 17.141 10.1654C17.141 10.0054 17.08 9.95239 16.663 9.77639C16.111 9.54639 15.866 9.23839 15.866 8.79439C15.866 8.14239 16.271 7.60139 17.424 7.60139C17.669 7.60139 18.074 7.63139 18.343 7.67139L18.196 8.48839ZM19.804 10.4144C19.914 10.4144 19.999 10.4044 20.073 10.3804L19.938 11.1634C19.6995 11.237 19.4516 11.2757 19.202 11.2784C18.675 11.2784 18.392 11.0034 18.392 10.5034C18.392 10.4034 18.405 10.2984 18.417 10.1874L18.479 9.84039L18.528 9.56039L19.006 6.87039H20.023L19.877 7.67939H20.404L20.256 8.53739H19.729L19.459 10.0074C19.447 10.0714 19.447 10.1204 19.447 10.1534C19.447 10.3364 19.557 10.4134 19.804 10.4144ZM22.313 8.67139C21.823 8.67139 21.663 9.04939 21.295 11.2054H20.265L20.89 7.67939H21.823L21.724 8.21439C22.044 7.79839 22.288 7.64239 22.62 7.64239C22.657 7.64239 22.694 7.64539 22.73 7.65039C22.73 7.65239 22.768 7.65939 22.818 7.67139C22.83 7.67539 22.842 7.67539 22.928 7.71039L22.562 8.70639L22.439 8.68039C22.3969 8.67424 22.3545 8.6709 22.312 8.67039L22.313 8.67139ZM24.133 11.2984C22.965 11.2984 22.5 10.5664 22.5 9.67239C22.5 8.42439 23.297 7.57639 24.523 7.57639C25.592 7.57639 26.156 8.27339 26.156 9.16639C26.156 9.38639 26.156 9.40139 26.131 9.60639C25.971 10.7784 25.186 11.2994 24.132 11.2984H24.133ZM26.241 11.2034C26.1687 11.2023 26.0997 11.1727 26.0491 11.121C25.9985 11.0693 25.9705 10.9997 25.971 10.9274C25.971 10.7774 26.094 10.6534 26.241 10.6534C26.389 10.6534 26.511 10.7774 26.511 10.9274C26.5115 10.9997 26.4834 11.0693 26.4329 11.121C26.3823 11.1727 26.3133 11.2023 26.241 11.2034Z" fill="white"/>
<path d="M26.24 10.7183C26.1848 10.7193 26.1322 10.7418 26.0934 10.781C26.0545 10.8203 26.0325 10.8731 26.032 10.9283C26.032 11.0453 26.13 11.1383 26.24 11.1383C26.351 11.1383 26.437 11.0443 26.437 10.9283C26.437 10.8133 26.351 10.7183 26.24 10.7183ZM26.338 11.0503H26.276L26.239 10.9553H26.202V11.0503H26.152V10.8063H26.251C26.2725 10.8057 26.2938 10.8105 26.313 10.8203C26.3286 10.8368 26.3375 10.8585 26.338 10.8813C26.338 10.9073 26.325 10.9333 26.301 10.9443L26.338 11.0503Z" fill="white"/>
<path d="M26.264 10.8564C26.264 10.8504 26.24 10.8504 26.228 10.8504H26.202V10.9134H26.24C26.24 10.9134 26.252 10.9134 26.264 10.9084C26.277 10.9024 26.277 10.8914 26.277 10.8804C26.277 10.8704 26.277 10.8604 26.264 10.8564ZM14.148 8.39941C13.817 8.39941 13.584 8.62341 13.486 9.03141L14.626 9.03441V8.85141C14.626 8.56541 14.455 8.39941 14.148 8.39941ZM10.823 9.62041C10.248 9.62041 9.953 9.80041 9.953 10.1564C9.953 10.3764 10.089 10.5164 10.321 10.5164C10.739 10.5164 11.033 10.1544 11.057 9.63341C10.9794 9.62415 10.9012 9.61981 10.823 9.62041ZM24.498 8.43941C23.971 8.43941 23.652 9.08241 23.652 9.64841C23.652 10.1274 23.872 10.4484 24.241 10.4414C24.462 10.4414 24.94 10.1254 25.026 9.57741C25.05 9.44941 25.062 9.30741 25.062 9.15441C25.062 8.78741 24.916 8.43841 24.498 8.43941Z" fill="white"/>
</svg>
