<svg width="53" height="15" viewBox="0 0 53 15" fill="none" xmlns="http://www.w3.org/2000/svg">
<path fill-rule="evenodd" clip-rule="evenodd" d="M14.261 0.046387V0.052387C14.255 0.052387 12.232 0.046387 11.693 1.88639C11.199 3.57439 9.80599 8.23239 9.76699 8.36039H9.38199C9.38199 8.36039 7.95699 3.59839 7.45599 1.88039C6.91599 0.0403869 4.88799 0.046387 4.88799 0.046387H0.265991V14.0464H4.88799V5.73239H5.27299L7.96999 14.0464H11.18L13.876 5.73839H14.261V14.0464H18.883V0.046387H14.261ZM31.209 0.046387C31.209 0.046387 29.855 0.162387 29.219 1.51339L25.946 8.36039H25.561V0.046387H20.939V14.0464H25.304C25.304 14.0464 26.723 13.9244 27.358 12.5794L30.568 5.73239H30.953V14.0464H35.576V0.046387H31.209ZM37.629 6.40439V14.0464H42.251V9.58339H47.259C49.441 9.58339 51.29 8.25639 51.977 6.40439H37.629ZM47.259 0.046387H36.981C37.494 2.71239 39.593 4.85139 42.309 5.54839C42.9401 5.71113 43.5892 5.79345 44.241 5.79339H52.163C52.233 5.47539 52.266 5.15139 52.266 4.81539C52.266 2.18039 50.026 0.046387 47.259 0.046387Z" fill="white"/>
</svg>
