<svg width="28" height="28" viewBox="0 0 28 28" fill="none" xmlns="http://www.w3.org/2000/svg">
<path fill-rule="evenodd" clip-rule="evenodd" d="M25.9723 7.43448C25.7456 6.82539 25.2866 6.33107 24.696 6.05993C21.0422 4.05029 17.3767 2.06208 13.6996 0.0953861L13.4541 0.0462952L13.2578 0.0953861C12.8405 0.267204 5.89414 4.19448 2.70323 6.05993C2.23687 6.30539 1.72141 6.67357 1.47596 7.36084C1.42637 7.5457 1.39351 7.73464 1.37778 7.92539V19.3881C1.57414 20.2472 2.13869 20.689 2.67869 21.0081L13.1596 26.9727L13.4051 27.0463L13.6996 26.9727L24.696 21.0081C25.2114 20.7136 25.776 20.3208 25.9969 19.5354L26.046 19.1672V7.8763L25.9723 7.43448ZM14.2396 14.8717V14.5527C14.2396 14.3808 14.2887 14.3072 14.4114 14.2336L17.5778 12.5645L18.6823 11.9754L18.805 11.9017V14.2827C18.805 14.8717 19.1241 15.2645 19.6151 15.2645C20.106 15.2645 20.4251 14.8717 20.4251 14.2827V11.239C20.4251 11.0427 20.4496 10.9936 20.5969 10.8954L23.2969 9.42266L24.3278 8.88266L24.4505 8.80902V18.8481C24.4505 19.0936 24.3769 19.2163 24.205 19.339L16.4487 23.5608L14.3378 24.739L14.2641 24.7636V14.8717H14.2396ZM23.4687 7.40993L23.0023 7.65539L19.885 9.34902H19.6641L11.0241 4.34175L10.0423 3.7772H10.0914L10.8769 3.2863L11.5641 2.91811L13.2823 1.9363C13.4051 1.83811 13.5032 1.83811 13.626 1.91175L21.4069 6.18266L23.4932 7.3363H23.4441L23.4687 7.40993ZM17.2587 10.7481L13.5523 12.7608H13.3805L3.88141 7.36084L3.95505 7.31175L5.0105 6.69811L8.20141 4.8572C8.2996 4.78357 8.34869 4.78357 8.44687 4.8572L16.0069 9.2263L17.8969 10.3063L17.9705 10.3554L17.2341 10.7481H17.2587ZM3.02232 8.85811L3.09596 8.9072L5.8696 10.4781C8.07869 11.7054 10.2878 12.9817 12.4723 14.2336C12.595 14.3072 12.6441 14.3317 12.6441 14.479V24.7636C12.5945 24.7401 12.5454 24.7156 12.4969 24.6899L10.4105 23.4627L3.29232 19.3636C3.04687 19.2408 2.99778 19.1181 2.99778 18.8727V8.83357L3.02232 8.85811Z" fill="#1C2D38"/>
</svg>
