<svg width="21" height="21" viewBox="0 0 21 21" fill="none" xmlns="http://www.w3.org/2000/svg">
<mask id="mask0_1_980" style="mask-type:luminance" maskUnits="userSpaceOnUse" x="0" y="0" width="21" height="21">
<path d="M15.4175 0.0463867H5.11448C2.43673 0.0463867 0.265991 2.21713 0.265991 4.89487V15.1979C0.265991 17.8756 2.43673 20.0464 5.11448 20.0464H15.4175C18.0953 20.0464 20.266 17.8756 20.266 15.1979V4.89487C20.266 2.21713 18.0953 0.0463867 15.4175 0.0463867Z" fill="white"/>
</mask>
<g mask="url(#mask0_1_980)">
<path d="M12.6199 9.5898H6.71123V7.25164H12.6199C12.9651 7.25164 13.2051 7.31181 13.3255 7.41686C13.4459 7.52192 13.5206 7.71677 13.5206 8.0014V8.84095C13.5206 9.14084 13.4459 9.33569 13.3255 9.44075C13.2051 9.5458 12.9651 9.5907 12.6199 9.5907V9.5898ZM13.0253 5.04728H4.20539V15.0464H6.71123V11.7933H11.3293L13.5206 15.0464H16.3266L13.9106 11.778C14.8013 11.646 15.2013 11.373 15.5311 10.9232C15.861 10.4733 16.0264 9.75411 16.0264 8.79425V8.04451C16.0264 7.47522 15.9661 7.02537 15.861 6.68058C15.7558 6.33578 15.5761 6.03589 15.3208 5.76651C15.0512 5.51151 14.751 5.33192 14.3906 5.2116C14.0302 5.10655 13.5799 5.04639 13.0253 5.04639V5.04728Z" fill="white"/>
<path d="M30.266 0.0463915C30.266 5.56924 25.7889 10.0464 20.266 10.0464C19.1431 10.0464 18.0636 9.86133 17.056 9.52004C17.0775 9.2824 17.0871 9.03943 17.0871 8.79425V8.04451C17.0871 7.4079 17.0205 6.84675 16.8755 6.37118C16.719 5.85833 16.4508 5.41696 16.0907 5.03699L16.0707 5.0159L16.0496 4.99593C15.666 4.63307 15.2311 4.37404 14.7264 4.20557L14.707 4.1991L14.6874 4.19337C14.207 4.05336 13.6525 3.98578 13.0253 3.98578H11.9647V3.98667H11.0722C10.5533 2.77755 10.266 1.44553 10.266 0.0463915C10.266 -5.47646 14.7431 -9.95361 20.266 -9.95361C25.7889 -9.95361 30.266 -5.47646 30.266 0.0463915Z" fill="white"/>
</g>
<path d="M15.4175 0.197754H5.11448C2.52041 0.197754 0.417505 2.30066 0.417505 4.89472V15.1978C0.417505 17.7918 2.52041 19.8947 5.11448 19.8947H15.4175C18.0116 19.8947 20.1145 17.7918 20.1145 15.1978V4.89472C20.1145 2.30066 18.0116 0.197754 15.4175 0.197754Z" stroke="white" stroke-width="0.30303"/>
</svg>
