<svg width="101" height="25" viewBox="0 0 101 25" fill="none" xmlns="http://www.w3.org/2000/svg">
<mask id="mask0_1_810" style="mask-type:luminance" maskUnits="userSpaceOnUse" x="0" y="0" width="101" height="25">
<path d="M0.265991 0.63916H100.266V24.7132H0.265991V0.63916Z" fill="white"/>
</mask>
<g mask="url(#mask0_1_810)">
<path fill-rule="evenodd" clip-rule="evenodd" d="M10.9327 23.7872C5.90488 23.7872 3.38636 23.7872 1.83081 22.2223C0.265991 20.6575 0.265991 18.1483 0.265991 13.1205V12.2316C0.265991 7.20383 0.265991 4.68531 1.83081 3.12976C3.38636 1.56494 5.90488 1.56494 10.9327 1.56494H11.8215C16.8493 1.56494 19.3678 1.56494 20.9234 3.12976C22.4882 4.68531 22.4882 7.20383 22.4882 12.2316V13.1205C22.4882 18.1483 22.4882 20.6575 20.9234 22.2223C19.3678 23.7872 16.8493 23.7872 11.8215 23.7872H10.9327Z" fill="#2B71F6"/>
<path d="M15.9327 15.9629L17.4141 16.3332C18.0993 16.5092 18.766 15.9906 18.766 15.2962V8.05545C18.766 7.44434 18.3401 6.90731 17.7475 6.75916L13.4327 5.68508C13.2748 5.64582 13.1101 5.64292 12.9509 5.67661C12.7918 5.7103 12.6424 5.7797 12.514 5.87957C12.3856 5.97944 12.2815 6.10718 12.2097 6.25313C12.1379 6.39909 12.1001 6.55945 12.0993 6.72212V8.02768L9.38636 7.35175C9.22788 7.31083 9.06215 7.30667 8.90182 7.33959C8.74149 7.37251 8.5908 7.44164 8.46127 7.54169C8.33173 7.64174 8.22678 7.77008 8.15442 7.91689C8.08206 8.0637 8.04421 8.22511 8.04377 8.38879V9.69434L5.3308 9.01842C5.17233 8.9775 5.00659 8.97334 4.84626 9.00626C4.68593 9.03918 4.53524 9.1083 4.40571 9.20836C4.27618 9.30841 4.17122 9.43674 4.09886 9.58356C4.02651 9.73037 3.98866 9.89178 3.98821 10.0555V17.3055C3.98821 17.9166 4.41414 18.4536 5.00673 18.6017L9.31229 19.6758C9.99747 19.8425 10.6549 19.3332 10.6549 18.6388V17.3332V11.4073C10.6549 10.8055 10.266 10.4443 10.1271 10.3425C10.1203 10.3371 10.1147 10.3304 10.1105 10.3228C10.1063 10.3152 10.1037 10.3068 10.1029 10.2982C10.102 10.2895 10.1029 10.2808 10.1055 10.2725C10.108 10.2642 10.1122 10.2565 10.1178 10.2499C10.127 10.237 10.14 10.2273 10.1549 10.2223C10.1699 10.2173 10.1861 10.2173 10.2012 10.2221C10.766 10.3888 11.3123 10.9721 11.3678 11.7036L11.553 17.2314C11.553 17.4166 11.6734 17.574 11.8401 17.6295L13.3678 18.0092C14.053 18.1758 14.7104 17.6666 14.7104 16.9721V9.73138C14.7104 9.12953 14.3215 8.76842 14.1827 8.66656C14.1759 8.66117 14.1702 8.65447 14.166 8.64685C14.1619 8.63924 14.1593 8.63086 14.1584 8.62223C14.1576 8.61359 14.1585 8.60487 14.161 8.59658C14.1636 8.58829 14.1678 8.5806 14.1734 8.57397C14.1825 8.56106 14.1955 8.5514 14.2105 8.5464C14.2255 8.5414 14.2417 8.54133 14.2567 8.54619C14.8215 8.71286 15.3678 9.29619 15.4141 10.0277L15.5993 15.5555C15.6086 15.7406 15.7475 15.9166 15.9327 15.9629Z" fill="white"/>
<path fill-rule="evenodd" clip-rule="evenodd" d="M54.8586 18.9447C54.8586 20.8799 53.1641 22.0465 51.1086 22.0465C49.0993 22.0465 47.4234 20.8984 46.9049 19.0743L48.6919 18.7595C49.266 19.7873 49.9141 20.3613 51.1178 20.3613C52.1734 20.3613 52.9604 19.8706 52.9604 19.0095C52.9604 18.028 51.9141 17.6576 50.7382 17.278C49.2012 16.7687 47.4234 16.1669 47.4234 14.0002C47.4234 12.065 48.9975 10.9354 50.979 10.9354C51.8412 10.9 52.6907 11.1517 53.3945 11.6511C54.0983 12.1504 54.6165 12.8692 54.8678 13.6947L53.1086 13.9817C52.9466 13.5697 52.6613 13.2178 52.2917 12.9742C51.9221 12.7306 51.4862 12.6071 51.0438 12.6206C50.1178 12.6206 49.3308 13.065 49.3308 13.9076C49.3308 14.8706 50.3678 15.241 51.553 15.6391C53.0808 16.1576 54.8586 16.7873 54.8586 18.9447ZM34.1641 17.7873C35.7845 17.3706 36.8493 16.1206 36.8493 14.5002C36.8493 12.5002 35.2475 11.0836 32.9882 11.0836H28.9697V21.8891H30.8215V17.9169H32.1364L35.0067 21.8984H37.1919L34.1641 17.7873ZM32.9882 12.7687C34.1456 12.7687 34.9512 13.4724 34.9512 14.5002C34.9512 15.528 34.1456 16.2317 32.9882 16.2317H30.8215V12.7687H32.9882ZM41.3678 22.0465C41.8474 22.0458 42.3187 21.9209 42.7357 21.684C43.1527 21.4471 43.5013 21.1063 43.7475 20.6947L44.0993 21.8984H45.4327V13.9169H43.6549V18.5373C43.6549 19.6669 42.8956 20.4632 41.8586 20.4632C40.8401 20.4632 40.1271 19.6669 40.1271 18.5373V13.9169H38.3493V18.7317C38.3493 20.6484 39.6456 22.0465 41.3678 22.0465ZM59.7012 20.3613C59.0993 20.3613 58.803 20.065 58.803 19.4724V15.4539H61.2012V13.9169H58.7938V11.6206H57.4697L57.0253 13.9169H55.7104V15.4539H57.0253V19.4724C57.0253 21.028 57.9327 21.8891 59.7012 21.8891H61.2012L61.3493 20.3613H59.7104H59.7012ZM70.729 17.9076C70.729 20.3243 68.9512 22.0465 66.4327 22.0465C63.9141 22.0465 62.1364 20.3243 62.1364 17.9076C62.1364 15.4817 63.9141 13.7687 66.4327 13.7687C68.9512 13.7687 70.729 15.4817 70.729 17.9076ZM63.9882 17.9076C63.9882 19.4076 64.979 20.4354 66.4327 20.4354C67.8864 20.4354 68.8771 19.4076 68.8771 17.9076C68.8771 16.4076 67.8864 15.3799 66.4327 15.3799C64.979 15.3799 63.9882 16.3984 63.9882 17.9076ZM74.053 21.8891V17.1854C74.053 16.1669 74.5438 15.6113 75.6271 15.6113H76.6456L76.4975 13.9169H76.1549C75.2104 13.9169 74.4882 14.1854 73.9419 15.0743L73.5993 13.9169H72.2752V21.8891H74.053ZM81.2197 13.7687C83.6641 13.7687 85.3956 15.5187 85.3956 17.815C85.3956 18.028 85.3771 18.2132 85.3679 18.3799H78.9049C79.0716 19.6021 79.9697 20.4354 81.3308 20.4354C82.2753 20.4354 83.016 20.0373 83.4049 19.4724L85.0715 19.7502C84.4697 21.2595 82.8956 22.0465 81.2197 22.0465C80.6687 22.0699 80.1188 21.979 79.6045 21.7796C79.0903 21.5802 78.6228 21.2767 78.2315 20.888C77.8402 20.4993 77.5336 20.0339 77.3307 19.521C77.1279 19.0081 77.0334 18.4588 77.053 17.9076C77.053 15.5002 78.7845 13.7687 81.2197 13.7687ZM83.4604 17.0095C83.3321 16.5146 83.0417 16.077 82.6356 15.7665C82.2294 15.456 81.7309 15.2905 81.2197 15.2965C80.1364 15.2965 79.303 15.9724 79.016 17.0002H83.4604V17.0095Z" fill="white"/>
<path d="M28.0993 8.51868V6.37979H28.2382C28.4234 6.37979 28.5715 6.3335 28.6827 6.25016C28.7938 6.15757 28.8864 5.97238 28.9604 5.71313C29.0345 5.43535 29.0993 5.0372 29.1456 4.50942L29.3678 1.5835H32.8586V6.37979H33.6734V8.52794H32.8586V7.12053H28.9141V8.51868H28.0993ZM32.053 6.37053V2.32424H30.1086L29.9512 4.54646C29.8864 5.42609 29.7197 6.0372 29.4604 6.37053H32.053ZM36.1734 7.19461C35.7567 7.19461 35.3864 7.10201 35.0623 6.93535C34.7408 6.76244 34.4745 6.50253 34.2938 6.18535C34.1086 5.86127 34.016 5.50016 34.016 5.09276C34.016 4.68535 34.1086 4.31498 34.2938 4.00016C34.4789 3.67609 34.7382 3.42609 35.0623 3.25016C35.3864 3.06498 35.7567 2.97238 36.1734 2.97238C36.5808 2.97238 36.9512 3.06498 37.2845 3.25016C37.6086 3.43535 37.8586 3.67609 38.0438 3.9909C38.2289 4.31498 38.3215 4.68535 38.3215 5.09276C38.3215 5.50016 38.2289 5.86127 38.0438 6.18535C37.8586 6.50016 37.6086 6.75016 37.2752 6.92609C36.9512 7.11127 36.5808 7.20387 36.1641 7.20387L36.1734 7.19461ZM36.1734 6.4909C36.5715 6.4909 36.8864 6.36127 37.1364 6.10201C37.3864 5.85201 37.5067 5.50942 37.5067 5.0835C37.5067 4.66683 37.3864 4.3335 37.1364 4.07424C37.0124 3.94515 36.8625 3.84376 36.6965 3.77673C36.5305 3.70971 36.3523 3.67856 36.1734 3.68535C35.766 3.68535 35.4512 3.81498 35.2012 4.07424C34.9512 4.3335 34.8308 4.66683 34.8308 5.09276C34.8308 5.50016 34.9512 5.84276 35.2012 6.11127C35.4512 6.36127 35.7752 6.4909 36.1734 6.4909ZM40.9419 7.19461C40.5345 7.19461 40.1734 7.10201 39.8493 6.93535C39.5334 6.75717 39.2736 6.49417 39.0993 6.17609C38.9141 5.85201 38.8308 5.4909 38.8308 5.09276C38.8308 4.68535 38.9234 4.31498 39.0993 4.00016C39.2845 3.67609 39.5252 3.42609 39.8401 3.25016C40.1641 3.06498 40.5345 2.97238 40.9419 2.97238C41.3771 2.97238 41.766 3.07424 42.1086 3.2872C42.4512 3.50016 42.7012 3.79646 42.8493 4.19461L42.1178 4.31498C42.0252 4.12979 41.8771 3.97238 41.6734 3.85201C41.4639 3.7364 41.2274 3.67886 40.9882 3.68535C40.5901 3.68535 40.266 3.81498 40.0067 4.07424C39.766 4.3335 39.6364 4.67609 39.6364 5.09276C39.6364 5.50016 39.766 5.84276 40.0067 6.11127C40.266 6.36127 40.5901 6.4909 40.9882 6.4909C41.2567 6.4909 41.4882 6.42609 41.6919 6.30572C41.9049 6.18535 42.0623 6.02794 42.1549 5.8335L42.8771 5.94461C42.7289 6.34276 42.479 6.65757 42.1178 6.87053C41.766 7.09276 41.3771 7.19461 40.9419 7.19461ZM45.1734 7.12053H44.4049V3.75942H42.9975V3.05572H46.5901V3.75942H45.1734V7.12053ZM50.1549 3.04646H50.9512L49.2475 7.7409C49.1178 8.09276 48.9604 8.35201 48.7475 8.50942C48.5438 8.66683 48.2752 8.7409 47.9327 8.7409H47.3308L47.2567 8.0372H47.9789C48.1044 8.044 48.2284 8.0081 48.3308 7.93535C48.4234 7.87053 48.4882 7.75016 48.5438 7.59276L48.6364 7.36127L46.8215 3.06498H47.6549L48.9327 6.19461H49.0438L50.1456 3.04646H50.1549ZM52.3401 7.12053H51.5623V3.04646H55.0252V7.12053H54.2567V3.75942H52.3401V7.12053ZM58.7475 4.71313V3.04646H59.516V7.12053H58.7475V5.41683H56.7845V7.12053H56.016V3.04646H56.7845V4.71313H58.7475ZM62.4141 7.19461C61.9975 7.19461 61.6271 7.10201 61.303 6.93535C60.9849 6.76105 60.7219 6.50127 60.5438 6.18535C60.3586 5.86127 60.266 5.50016 60.266 5.09276C60.266 4.68535 60.3586 4.31498 60.5438 4.00016C60.729 3.67609 60.979 3.42609 61.303 3.25016C61.6271 3.06498 61.9975 2.97238 62.4141 2.97238C62.8308 2.97238 63.2012 3.06498 63.5252 3.25016C63.8493 3.43535 64.0993 3.67609 64.2845 3.9909C64.4697 4.31498 64.5623 4.68535 64.5623 5.09276C64.5623 5.50016 64.4697 5.86127 64.2845 6.18535C64.0993 6.50016 63.8493 6.75016 63.5252 6.92609C63.2012 7.11127 62.8308 7.20387 62.4141 7.20387V7.19461ZM62.4141 6.4909C62.8123 6.4909 63.1364 6.36127 63.3771 6.10201C63.6364 5.85201 63.7567 5.50942 63.7567 5.0835C63.7567 4.66683 63.6364 4.3335 63.3864 4.07424C63.2613 3.94395 63.1099 3.84186 62.9422 3.7748C62.7746 3.70773 62.5945 3.67723 62.4141 3.68535C62.016 3.68535 61.6919 3.81498 61.4419 4.07424C61.2012 4.3335 61.0715 4.66683 61.0715 5.09276C61.0715 5.50016 61.2012 5.84276 61.4419 6.11127C61.6919 6.36127 62.016 6.4909 62.4141 6.4909ZM69.8215 4.9909C70.0345 5.06498 70.1919 5.19461 70.3215 5.37053C70.4604 5.54646 70.5252 5.75016 70.5252 5.9909C70.5252 6.20387 70.4604 6.39831 70.3401 6.56498C70.2104 6.75016 70.0438 6.87979 69.8215 6.98164C69.5993 7.07424 69.3493 7.12053 69.0623 7.12053H67.1178V3.04646H68.9975C69.266 3.04646 69.4975 3.10201 69.7104 3.19461C69.9234 3.2872 70.0808 3.41683 70.2012 3.5835C70.3215 3.7409 70.3864 3.92609 70.3864 4.13905C70.3864 4.3335 70.3308 4.50942 70.2289 4.65757C70.1283 4.80576 69.9867 4.92155 69.8215 4.9909ZM67.8956 3.69461V4.71313H68.9975C69.1827 4.71313 69.3215 4.66683 69.4327 4.5835C69.553 4.4909 69.6178 4.36127 69.6178 4.21313C69.6179 4.14255 69.6011 4.07299 69.5689 4.0102C69.5367 3.9474 69.49 3.89318 69.4327 3.85201C69.3081 3.75662 69.1543 3.70752 68.9975 3.71313H67.8864L67.8956 3.69461ZM69.0623 6.47238C69.2426 6.48261 69.4204 6.42664 69.5623 6.31498C69.6919 6.22238 69.7475 6.07424 69.7475 5.90757C69.7497 5.83004 69.7341 5.75304 69.702 5.68243C69.6699 5.61183 69.6221 5.54949 69.5623 5.50016C69.4204 5.3885 69.2426 5.33253 69.0623 5.34276H67.8956V6.47238H69.0623Z" fill="white"/>
</g>
</svg>
