<svg width="88" height="18" viewBox="0 0 88 18" fill="none" xmlns="http://www.w3.org/2000/svg">
<path d="M27.9397 9.03598C27.9397 6.40039 29.6119 4.6847 32.6095 4.6847C33.9542 4.6847 34.7551 4.92139 35.3244 5.1696L34.924 6.13939C34.1998 5.92573 33.6702 5.7722 32.6364 5.7722C30.8004 5.76069 29.3611 6.68314 29.3611 8.91955C29.3611 11.2007 30.8529 12.1948 32.882 12.1948C33.7469 12.1948 34.4071 12.0759 35.0135 11.898L35.3372 12.8921C34.6527 13.1288 33.9286 13.3054 32.662 13.3054C29.5479 13.3054 27.9397 11.6038 27.9397 9.03598ZM36.2328 9.55798C36.2328 8.23251 36.5041 6.15091 37.3178 5.45363C38.0291 4.83823 39.9278 4.4237 42.1386 4.04627L42.3586 5.1568C40.3935 5.46386 38.6483 5.74917 38.2223 6.1266C37.8474 6.45924 37.6798 7.2141 37.6018 7.78344C38.3471 7.4058 39.1703 7.20734 40.0058 7.20386C41.6985 7.20386 42.7719 7.97151 42.7719 9.93541C42.7719 12.2409 41.3108 13.2708 39.3597 13.2708C37.4214 13.2708 36.2328 12.159 36.2328 9.55798ZM41.4144 9.98275C41.4144 8.9541 40.9359 8.16086 39.6565 8.16086C38.8428 8.16086 38.1967 8.42186 37.5634 8.71741C37.5506 8.92979 37.5378 9.23813 37.5378 9.45051C37.5378 11.3786 38.1711 12.278 39.4633 12.278C40.9884 12.278 41.4144 11.0946 41.4144 9.98275ZM43.8811 10.0531C43.8811 7.49941 45.3013 6.54113 47.072 6.54113C49.05 6.54113 49.8777 7.68876 49.8777 9.79339V10.231H45.2373C45.2501 11.9338 46.3107 12.278 47.5505 12.278C48.2235 12.278 48.7915 12.1821 49.4901 11.9927L49.7217 12.9523C49.1024 13.1646 48.2618 13.3054 47.3445 13.3054C45.2373 13.3054 43.8811 12.5492 43.8811 10.0531ZM48.4819 9.36735C48.4819 8.22099 48.029 7.4751 46.9952 7.4751C46.0651 7.4751 45.3665 8.10201 45.277 9.36863L48.4819 9.36735ZM51.2378 6.70617H52.5811V7.21538C53.1889 6.82516 53.7454 6.55264 54.6103 6.55264C56.2774 6.55264 57.4148 7.61711 57.4148 9.77036C57.4148 12.4072 55.7093 13.2939 53.8094 13.2939C53.3705 13.2939 52.892 13.235 52.5811 13.1992V15.7657H51.2378V6.70617ZM56.0445 9.82794C56.0445 8.65855 55.5929 7.6056 54.2354 7.6056C53.4998 7.6056 52.9432 7.91266 52.5824 8.09049V12.1821C52.7487 12.2064 53.3053 12.301 53.7838 12.301C55.3984 12.301 56.0445 11.2698 56.0445 9.82794ZM58.5816 9.55798C58.5816 8.23251 58.8528 6.15091 59.6678 5.45363C60.3779 4.83823 62.2778 4.4237 64.4873 4.04627L64.7074 5.1568C62.7435 5.46386 60.9971 5.74917 60.5711 6.1266C60.1975 6.45924 60.0299 7.2141 59.9518 7.78344C60.6968 7.40599 61.5195 7.20754 62.3546 7.20386C64.0485 7.20386 65.1207 7.97151 65.1207 9.93541C65.1207 12.2409 63.6608 13.2708 61.7097 13.2708C59.7702 13.2708 58.5816 12.159 58.5816 9.55798ZM63.7632 9.98275C63.7632 8.9541 63.286 8.16086 62.0066 8.16086C61.1929 8.16086 60.5455 8.42186 59.9122 8.71741C59.8994 8.92979 59.8866 9.23813 59.8866 9.45051C59.8866 11.3786 60.5199 12.278 61.8121 12.278C63.3372 12.278 63.7632 11.0946 63.7632 9.98275ZM65.9894 11.4259C65.9894 9.79339 67.5669 9.46202 68.7951 9.45051L70.333 9.4262V8.72892C70.333 7.84229 69.8417 7.6056 68.8079 7.6056C68.0582 7.6056 67.4389 7.7233 66.8299 7.91266L66.5459 6.97869C67.3389 6.67997 68.1806 6.53158 69.028 6.54113C70.7206 6.54113 71.6508 7.08488 71.6508 8.39755V11.7688C71.6508 12.1705 72.0256 12.2537 72.3877 12.2652L72.2802 13.212C72.1907 13.2235 72.1037 13.235 72.0116 13.235C71.2887 13.235 70.5786 13.0341 70.4494 12.4546C70.0093 12.7616 69.2851 13.2708 68.1618 13.2708C66.8568 13.2708 65.9894 12.6196 65.9894 11.4259ZM70.333 11.71V10.2194L68.8335 10.2783C67.8637 10.3026 67.3084 10.68 67.3084 11.3428C67.3084 11.9927 67.8253 12.2895 68.5111 12.2895C69.1431 12.2895 69.8289 12.0055 70.333 11.71ZM73.5417 6.70617H74.8979V9.439H78.2193V6.70489H79.5754V13.1634H78.2193V10.4203H74.8979V13.1646H73.5417V6.70617ZM81.24 6.70617H82.5961V13.1646H81.24V6.70617ZM84.656 12.0528L82.6473 9.85225L85.4556 6.70617H86.9807L84.1071 9.75757L85.5068 11.1777C86.1273 11.8277 86.6967 12.2064 87.2647 12.3484L87.0319 13.2696C86.373 13.235 85.5861 13.093 84.656 12.0528ZM20.6355 8.68286C20.6355 13.8287 16.077 18.0021 10.4514 18.0021C4.82582 18.0021 0.265991 13.8287 0.265991 8.68286C0.265991 8.47304 0.274947 8.26577 0.2903 8.06107L6.45707 11.3069L19.5173 4.43138C20.2338 5.70567 20.6355 7.15013 20.6355 8.68286ZM6.45579 8.96049L0.715065 5.9398C0.602102 6.27621 0.510232 6.61933 0.439991 6.96717L6.45579 10.1337L18.9569 3.5537C18.7501 3.26775 18.528 2.99313 18.2916 2.73104L6.45707 8.96177L6.45579 8.96049ZM17.515 1.96851C17.2303 1.71779 16.9318 1.48329 16.6207 1.26611L6.45579 6.61661L1.60426 4.06163C1.4213 4.35589 1.2537 4.65911 1.10529 4.97257L6.45579 7.78727L17.515 1.96851ZM6.45579 5.44467L15.5933 0.636641C15.2084 0.430156 14.811 0.247704 14.4035 0.090332L6.45451 4.27273L2.91821 2.40991C2.66703 2.66278 2.42998 2.9293 2.20814 3.20826L6.45579 5.44467Z" fill="white"/>
</svg>
