<svg width="42" height="25" viewBox="0 0 42 25" fill="none" xmlns="http://www.w3.org/2000/svg">
<path d="M41.9988 9.10245V14.9701H39.9036V10.8541H37.8862V14.9701H35.7908V9.10205H41.9986V9.10245H41.9988Z" fill="white"/>
<path d="M31.4882 15.18C33.3636 15.18 34.7566 14.03 34.7566 12.2866C34.7566 10.5992 33.7288 9.50356 32.0114 9.50356C31.2188 9.50356 30.5648 9.78256 30.0722 10.264C30.1898 9.26896 31.0312 8.54256 31.9578 8.54256C32.1714 8.54256 33.7812 8.53916 33.7812 8.53916L34.6914 6.79736C34.6914 6.79736 32.6706 6.84336 31.7312 6.84336C29.5848 6.88076 28.135 8.83176 28.135 11.2014C28.135 13.962 29.5488 15.18 31.4882 15.18ZM31.4996 11.0464C32.1958 11.0464 32.6788 11.504 32.6788 12.2864C32.6788 12.9906 32.2496 13.5708 31.4996 13.5724C30.782 13.5724 30.2992 13.0348 30.2992 12.2984C30.2992 11.5158 30.782 11.0464 31.4996 11.0464Z" fill="white"/>
<path d="M26.4294 13.0055C26.4294 13.0055 25.9346 13.2907 25.1956 13.3447C24.346 13.3699 23.589 12.8331 23.589 11.8799C23.589 10.9499 24.257 10.4169 25.174 10.4169C25.7366 10.4169 26.4806 10.8067 26.4806 10.8067C26.4806 10.8067 27.0248 9.80775 27.3068 9.30815C26.7904 8.91675 26.1026 8.70215 25.3026 8.70215C23.2836 8.70215 21.7198 10.0185 21.7198 11.8681C21.7198 13.7415 23.1896 15.0271 25.3026 14.9883C25.8932 14.9665 26.7078 14.7591 27.2048 14.4399L26.4294 13.0055Z" fill="white"/>
<path d="M0.666016 5.27051L3.57242 10.6607V13.4333L0.669416 18.8191L0.666016 5.27051Z" fill="white"/>
<path d="M11.8254 8.57479L14.3744 7.01539L20.1226 6.90039L11.8254 11.9834V8.57479Z" fill="white"/>
<path d="M11.8104 5.46359L11.8254 12.1178L8.91223 10.3278V0.0463867L11.8104 5.46359Z" fill="white"/>
<path d="M20.1224 6.90059L14.3576 6.79059L12.0142 5.37039L8.91223 0.0463867L20.1224 6.90059Z" fill="white"/>
<path d="M11.8254 18.6803V15.5109L8.91223 13.7549L8.91383 24.0465L11.8254 18.6803Z" fill="white"/>
<path d="M14.3986 17.1003L3.75802 10.5837L0.666016 5.27051L20.1106 17.1871L14.3986 17.1003Z" fill="white"/>
<path d="M8.914 24.0464L11.9722 18.774L14.3726 17.2866L20.1102 17.187L8.914 24.0464Z" fill="white"/>
<path d="M0.669434 18.8188L8.93603 13.7548L6.15683 12.0498L3.73243 13.5362L0.669434 18.8188Z" fill="white"/>
</svg>
