<svg width="19" height="19" viewBox="0 0 19 19" fill="none" xmlns="http://www.w3.org/2000/svg">
<path fill-rule="evenodd" clip-rule="evenodd" d="M5.77796 13.5242C7.28357 14.7977 9.22309 15.4399 11.1911 15.3167C13.1592 15.1935 15.0035 14.3144 16.3385 12.8631C17.6736 11.4119 18.396 9.50081 18.3549 7.52932C18.3139 5.55784 17.5124 3.67853 16.118 2.28418C14.7237 0.889826 12.8444 0.0883473 10.8729 0.0472548C8.9014 0.0061623 6.99032 0.728636 5.53908 2.06368C4.08784 3.39872 3.20875 5.243 3.08554 7.21106C2.96233 9.17911 3.60455 11.1186 4.87796 12.6242L0.355957 17.1452L1.25596 18.0462L5.77796 13.5242ZM15.217 12.1922C14.6267 12.7888 13.9243 13.2628 13.1503 13.587C12.3762 13.9113 11.5457 14.0793 10.7065 14.0816C9.86725 14.0838 9.03586 13.9201 8.2601 13.6C7.48433 13.2799 6.77948 12.8096 6.18606 12.2161C5.59263 11.6227 5.12234 10.9179 4.80221 10.1421C4.48208 9.36634 4.31842 8.53495 4.32064 7.69573C4.32286 6.8565 4.49092 6.02599 4.81515 5.25193C5.13939 4.47787 5.6134 3.77552 6.20996 3.18524C7.40653 2.00127 9.02316 1.33915 10.7065 1.34361C12.3898 1.34806 14.0029 2.01873 15.1932 3.20902C16.3835 4.39931 17.0541 6.01241 17.0586 7.69573C17.0631 9.37904 16.4009 10.9957 15.217 12.1922Z" fill="#E30613"/>
</svg>
