<svg width="19" height="17" viewBox="0 0 19 17" fill="none" xmlns="http://www.w3.org/2000/svg">
<path d="M17.7208 0.667218C17.4208 0.412818 16.9496 0.376418 16.4624 0.572018H16.4616C15.9492 0.777618 1.95719 6.77922 1.38759 7.02442C1.28399 7.06042 0.379191 7.39802 0.472391 8.15002C0.555591 8.82802 1.28279 9.10882 1.37159 9.14122L4.92879 10.3592C5.16479 11.1448 6.03479 14.0432 6.22719 14.6624C6.34719 15.0484 6.54279 15.5556 6.88559 15.66C7.18639 15.776 7.48559 15.67 7.67919 15.518L9.85399 13.5008L13.3648 16.2388L13.4484 16.2888C13.6868 16.3944 13.9152 16.4472 14.1332 16.4472C14.3016 16.4472 14.4632 16.4156 14.6176 16.3524C15.1436 16.1364 15.354 15.6352 15.376 15.5784L17.9984 1.94762C18.1584 1.21962 17.936 0.849218 17.7208 0.667218ZM8.06599 10.8464L6.86599 14.0464L5.66599 10.0464L14.866 3.24642L8.06599 10.8464Z" fill="white"/>
</svg>
