<svg width="29" height="19" viewBox="0 0 29 19" fill="none" xmlns="http://www.w3.org/2000/svg">
<path d="M13.511 16.3044C13.5743 16.3756 13.6503 16.4346 13.735 16.4784C12.3229 17.4569 10.647 17.9835 8.92899 17.9884C4.17899 17.9884 0.265991 13.9814 0.265991 8.98839C0.265991 3.99439 4.17799 0.0463867 8.92899 0.0463867C10.717 0.0463867 12.338 0.626387 13.735 1.55639C13.679 1.61439 13.567 1.67239 13.512 1.73039C12.5024 2.66205 11.6978 3.79364 11.1492 5.05317C10.6007 6.31271 10.3204 7.67261 10.326 9.04639C10.27 11.7754 11.444 14.4464 13.511 16.3044ZM19.603 0.0463867C17.815 0.0463867 16.194 0.626387 14.797 1.55639C14.853 1.61439 14.965 1.67239 15.02 1.73039C16.0296 2.66205 16.8342 3.79364 17.3827 5.05317C17.9312 6.31271 18.2116 7.67261 18.206 9.04639C18.2059 10.4193 17.9229 11.7774 17.3748 13.0361C16.8266 14.2948 16.025 15.4271 15.02 16.3624C14.9572 16.4339 14.8816 16.4929 14.797 16.5364C16.209 17.515 17.885 18.0416 19.603 18.0464C24.353 18.0464 28.266 14.0394 28.266 9.04639C28.21 4.05239 24.354 0.0463867 19.603 0.0463867ZM14.238 1.96239C14.1178 2.02888 14.0202 2.1299 13.958 2.25239C12.115 3.87839 10.996 6.31739 10.996 9.04639C10.996 11.7754 12.17 14.1564 13.959 15.8394C14.07 15.9564 14.182 16.0144 14.294 16.1294C14.406 16.0144 14.517 15.9564 14.629 15.8394C16.474 14.2144 17.591 11.7754 17.591 9.04639C17.591 6.31739 16.418 3.93639 14.629 2.25239C14.462 2.13639 14.348 2.02039 14.238 1.96239Z" fill="white"/>
</svg>
