<svg width="28" height="28" viewBox="0 0 28 28" fill="none" xmlns="http://www.w3.org/2000/svg">
<path d="M9.99989 11.0459C9.99989 8.61252 11.9725 6.63986 14.4059 6.63986C16.8394 6.63986 18.812 8.61252 18.812 11.0459V14.0463C18.812 16.4797 16.8394 18.4524 14.4059 18.4524C11.9725 18.4524 9.99989 16.4797 9.99989 14.0463V11.0459Z" stroke="#1C2D38" stroke-width="1.6875"/>
<path d="M24.4381 22.1311C22.4773 21.8425 18.3446 20.5702 17.5025 17.7968M4.86903 22.1311C6.82991 21.8425 10.9626 20.5702 11.8047 17.7968" stroke="#1C2D38" stroke-width="1.6875"/>
<path d="M14.4059 26.7025C7.41609 26.7025 1.74969 21.0361 1.74969 14.0463C1.74969 7.05644 7.41609 1.39005 14.4059 1.39005C21.3958 1.39005 27.0622 7.05644 27.0622 14.0463C27.0622 21.0361 21.3958 26.7025 14.4059 26.7025Z" stroke="#1C2D38" stroke-width="1.6875"/>
</svg>
