<svg width="39" height="14" viewBox="0 0 39 14" fill="none" xmlns="http://www.w3.org/2000/svg">
<path d="M4.03199 13.3664L2.61599 3.16939L6.05499 5.33939L0.265991 0.737387H5.82899L6.39199 6.73639C6.46199 7.44839 6.51999 8.14839 6.57299 8.86839C6.86299 8.17839 7.19999 7.42539 7.58899 6.59439L10.346 0.738387H14.004L7.51599 13.3664H4.03199ZM13.226 13.3664L15.616 0.739387H18.89L16.503 13.3664H13.226ZM22.036 13.5464C20.542 13.5464 19.192 13.2014 18.425 12.6244L18.2 12.4524L19.307 9.71139L19.677 9.93439C20.468 10.3952 21.3666 10.6391 22.282 10.6414C22.979 10.6414 23.797 10.3694 23.797 9.61239C23.797 9.21739 23.568 8.86939 22.397 8.26239C21.155 7.58839 19.737 6.58539 19.737 4.77839C19.737 2.28639 21.811 0.546387 24.779 0.546387C25.993 0.546387 26.965 0.759387 27.747 1.19239L28.023 1.34439L26.977 4.15939L26.603 3.95439C25.9969 3.64004 25.3248 3.47415 24.642 3.47039C23.588 3.47039 23.14 3.93039 23.14 4.35539C23.14 4.81139 23.72 5.17339 24.679 5.71039C26.384 6.61039 27.216 7.74439 27.216 9.17439C27.216 11.7894 25.136 13.5464 22.036 13.5464Z" fill="white"/>
<path fill-rule="evenodd" clip-rule="evenodd" d="M34.864 13.3663L34.619 10.2823H31.782L30.375 13.3673H26.865L32.987 0.736328H36.792L38.266 13.3683H34.864V13.3663ZM33.794 5.56633C33.926 5.28133 34.06 4.96033 34.191 4.62233L34.198 4.71533C34.219 4.98033 34.24 5.22833 34.254 5.44633L34.45 7.60633H32.858L33.794 5.56633Z" fill="white"/>
</svg>
