<svg width="19" height="19" viewBox="0 0 19 19" fill="none" xmlns="http://www.w3.org/2000/svg">
<path fill-rule="evenodd" clip-rule="evenodd" d="M1.52909 1.30949C0.265991 2.57259 0.265991 4.60552 0.265991 8.67139V9.42139C0.265991 13.4872 0.265991 15.5202 1.52909 16.7833C2.79219 18.0464 4.82513 18.0464 8.89099 18.0464H9.64099C13.7069 18.0464 15.7398 18.0464 17.0029 16.7833C18.266 15.5202 18.266 13.4872 18.266 9.42139V8.67139C18.266 4.60552 18.266 2.57259 17.0029 1.30949C15.7398 0.0463867 13.7069 0.0463867 9.64099 0.0463867H8.89099C4.82513 0.0463867 2.79219 0.0463867 1.52909 1.30949ZM3.82853 5.67139H5.14133C5.47684 5.67139 5.60307 5.8182 5.72888 6.18165C6.37095 8.05155 7.45354 9.68572 7.89859 9.68572C8.06547 9.68572 8.14204 9.60889 8.14204 9.18514V7.25231C8.11189 6.70215 7.91967 6.46421 7.77728 6.288C7.68934 6.17914 7.62042 6.09386 7.62042 5.97307C7.62042 5.82626 7.74589 5.67139 7.95447 5.67139H10.0175C10.2957 5.67139 10.3925 5.82011 10.3925 6.15386V8.75407C10.3925 9.03214 10.5133 9.12949 10.5968 9.12949C10.7637 9.12949 10.9028 9.03214 11.2088 8.72625C12.1545 7.66946 12.8221 6.04256 12.8221 6.04256C12.9056 5.84794 13.0595 5.67139 13.3932 5.67139H14.706C15.1031 5.67139 15.1865 5.87572 15.1031 6.15386C14.9361 6.9186 13.3367 9.17122 13.3367 9.17122C13.1976 9.39367 13.142 9.50494 13.3367 9.75521C13.4053 9.85121 13.5516 9.9945 13.719 10.1584C13.8911 10.327 14.0856 10.5175 14.2407 10.7008C14.8047 11.335 15.2297 11.8701 15.348 12.2389C15.4562 12.6089 15.2687 12.7964 14.8936 12.7964H13.5808C13.2291 12.7964 13.0521 12.5995 12.6695 12.174C12.5073 11.9936 12.3082 11.7721 12.0432 11.5072C11.2644 10.7564 10.9306 10.659 10.7358 10.659C10.4716 10.659 10.3926 10.7339 10.3926 11.1089V12.2859C10.3926 12.6089 10.2893 12.7964 9.45484 12.7964C8.064 12.7964 6.53558 11.9522 5.45074 10.3948C3.82349 8.11444 3.37842 6.39022 3.37842 6.04256C3.37842 5.84794 3.45344 5.67139 3.82853 5.67139Z" fill="white"/>
</svg>
