<svg width="61" height="12" viewBox="0 0 61 12" fill="none" xmlns="http://www.w3.org/2000/svg">
<path fill-rule="evenodd" clip-rule="evenodd" d="M17.9162 8.21224C17.3866 8.21361 16.8685 8.05846 16.4275 7.76635C15.9865 7.47425 15.6424 7.05834 15.4388 6.57131C15.2352 6.08429 15.1812 5.54804 15.2836 5.03044C15.3861 4.51283 15.6404 4.03714 16.0144 3.6636C16.3884 3.29006 16.8652 3.03545 17.3845 2.93201C17.9037 2.82858 18.4422 2.88097 18.9315 3.08254C19.421 3.28412 19.8394 3.62582 20.1338 4.0644C20.428 4.50297 20.5852 5.01868 20.5852 5.54625C20.5857 6.25226 20.3048 6.92958 19.8043 7.42948C19.304 7.92932 18.6248 8.21086 17.9162 8.21224ZM17.9162 0.0464003C16.9874 0.0443434 16.0732 0.275721 15.2581 0.719119C14.443 1.16252 13.7533 1.8036 13.253 2.58304C12.7526 3.36247 12.4577 4.25507 12.3955 5.17821C12.3333 6.10134 12.506 7.02517 12.8973 7.8642C13.2887 8.70328 13.8863 9.43032 14.6346 9.97823C15.383 10.5261 16.258 10.877 17.1787 10.9986C18.0993 11.1201 19.0358 11.0083 19.9018 10.6735C20.7675 10.3386 21.5344 9.79167 22.1316 9.08316C21.7669 9.75867 21.2396 10.3248 20.6289 10.6805V10.9645H23.4231V5.51772C23.4165 4.06609 22.8336 2.67602 21.8018 1.65096C20.7701 0.625894 19.3733 0.0490718 17.9162 0.0464003ZM44.4128 8.26586H40.7785V6.48084H44.3441C44.7898 6.48084 45.31 6.89856 45.31 7.37338C45.31 7.71779 45.0396 8.26586 44.4128 8.26586ZM40.7785 2.83119L43.8309 2.82985C44.1618 2.82985 44.7082 3.17023 44.7082 3.71463C44.7082 4.14906 44.3544 4.61637 43.7392 4.61637H40.7785V2.83119ZM46.8957 5.21726C47.5584 4.21348 47.6194 2.84181 47.0138 1.81563C46.7139 1.30806 46.2872 0.886583 45.7751 0.592334C45.2629 0.298085 44.6829 0.141116 44.0916 0.136739L37.9842 0.136101V10.9645L44.8181 10.96C46.9618 10.96 48.1582 9.19751 48.1582 7.71856C48.1582 6.29554 47.3459 5.58197 46.8957 5.21726ZM35.2208 4.12634C36.1378 6.59139 36.1847 8.82785 36.1847 10.9647H33.348C33.348 9.23139 33.287 7.65316 32.9228 6.22641C32.4348 4.31387 31.526 2.92352 30.6815 2.92345C29.837 2.92339 28.9276 4.31387 28.4395 6.22641C28.0753 7.65316 28.015 9.19025 28.015 10.9647H25.1784C25.1784 9.02002 25.2245 6.59139 26.1417 4.12634C26.9964 1.82985 28.5936 0.0465917 30.6815 0.0465917C32.7694 0.0465917 34.3659 1.82985 35.2208 4.12634ZM8.46776 0.135972H11.3051V1.27661C11.3059 2.09552 11.123 2.90427 10.7698 3.64371C10.4166 4.38317 9.90188 5.03463 9.2635 5.55046C9.90188 6.0663 10.4166 6.71778 10.7698 7.45725C11.123 8.19673 11.3059 9.00545 11.3051 9.82434V10.965H8.46776V9.53867C8.46776 8.83335 8.18654 8.15696 7.68593 7.65828C7.18532 7.15954 6.50635 6.87937 5.79839 6.87937C5.09042 6.87937 4.41145 7.15954 3.91084 7.65828C3.41023 8.15696 3.12898 8.83335 3.12898 9.53867V10.9645H0.291018V9.82385C0.290312 9.0049 0.473322 8.19612 0.826666 7.45665C1.18001 6.71723 1.69476 6.06575 2.33329 5.54996C1.69474 5.03418 1.17998 4.38274 0.826628 3.6433C0.473281 2.90384 0.290284 2.09507 0.291018 1.2761V0.13578H3.12898V1.56158C3.12898 2.26687 3.41023 2.94329 3.91084 3.442C4.41145 3.94073 5.09042 4.2209 5.79839 4.2209C6.50635 4.2209 7.18532 3.94073 7.68593 3.442C8.18654 2.94329 8.46776 2.26687 8.46776 1.56158V0.135972ZM54.7339 8.2124C54.2044 8.21383 53.6862 8.05862 53.2453 7.76652C52.8043 7.47441 52.4603 7.05856 52.2566 6.57153C52.0531 6.08451 51.999 5.54826 52.1015 5.03062C52.2039 4.51302 52.4582 4.03732 52.8322 3.66379C53.2061 3.29025 53.683 3.03564 54.2023 2.9322C54.7217 2.82877 55.26 2.88116 55.7492 3.08273C56.2387 3.28432 56.6572 3.62601 56.9515 4.06458C57.2457 4.50316 57.403 5.01887 57.403 5.54644C57.4036 6.25248 57.1225 6.92986 56.6226 7.42975C56.1221 7.92965 55.4428 8.21114 54.7339 8.2124ZM60.2405 5.51791C60.2328 4.22716 59.7691 2.98026 58.9315 1.99574C58.0933 1.01121 56.9344 0.351888 55.6579 0.133324C54.3808 -0.0852393 53.0673 0.1509 51.9475 0.800354C50.8278 1.44981 49.9733 2.47115 49.5338 3.68534C49.0941 4.89955 49.0976 6.22916 49.5433 7.44114C49.9891 8.65312 50.8487 9.67012 51.9717 10.3139C53.0947 10.9577 54.4093 11.1872 55.6854 10.9622C56.9608 10.7372 58.1169 10.0721 58.9496 9.08333C58.585 9.75884 58.0575 10.325 57.4465 10.6807V10.9647H60.241V5.51772L60.2405 5.51791Z" fill="white"/>
</svg>
