<svg width="27" height="19" viewBox="0 0 27 19" fill="none" xmlns="http://www.w3.org/2000/svg">
<path fill-rule="evenodd" clip-rule="evenodd" d="M23.391 0.597637C23.9355 0.743714 24.4324 1.02968 24.8322 1.42714C25.232 1.82461 25.5209 2.31974 25.6702 2.86339C26.226 4.87489 26.2035 9.06776 26.2035 9.06776C26.2035 9.06776 26.2035 13.2393 25.6702 15.2508C25.5211 15.7946 25.2323 16.29 24.8324 16.6877C24.4326 17.0853 23.9356 17.3715 23.391 17.5176C21.366 18.0464 13.266 18.0464 13.266 18.0464C13.266 18.0464 5.18849 18.0464 3.14099 17.4951C2.59647 17.3491 2.09963 17.0631 1.6998 16.6656C1.29996 16.2682 1.01105 15.773 0.861741 15.2294C0.328491 13.2393 0.328491 9.04639 0.328491 9.04639C0.328491 9.04639 0.328491 4.87489 0.861741 2.86339C1.0135 2.31851 1.30287 1.82184 1.70203 1.4211C2.10119 1.02036 2.59672 0.729041 3.14099 0.575137C5.16599 0.0463867 13.266 0.0463867 13.266 0.0463867C13.266 0.0463867 21.366 0.0463867 23.391 0.597637ZM10.6864 5.19101L17.4217 9.04639L10.6875 12.9006V5.19214L10.6864 5.19101Z" fill="white"/>
</svg>
