<svg width="289" height="72" viewBox="0 0 289 72" fill="none" xmlns="http://www.w3.org/2000/svg">
<g clip-path="url(#clip0_1_27)">
<g clip-path="url(#clip1_1_27)">
<g clip-path="url(#clip2_1_27)">
<path d="M31.729 53.5413C30.156 53.7853 28.252 53.9813 26.016 54.1313C23.778 54.2773 21.26 54.3513 18.458 54.3513C14.23 54.3513 10.911 54.0933 8.50297 53.5753C6.09397 53.0623 4.27597 52.1053 3.04697 50.7073C1.81797 49.3103 1.04397 47.3713 0.725972 44.8963C0.403972 42.4203 0.245972 39.2433 0.245972 35.3663C0.245972 31.3453 0.453972 28.0583 0.871972 25.5053C1.28997 22.9553 2.12497 20.9683 3.37897 19.5453C4.63297 18.1223 6.43897 17.1423 8.79897 16.6013C11.157 16.0623 14.303 15.7933 18.237 15.7933C21.038 15.7933 23.52 15.8783 25.684 16.0503C27.846 16.2233 29.714 16.4063 31.287 16.6023C33.104 16.7983 34.702 17.0433 36.079 17.3383V23.4463C34.26 23.2983 32.442 23.1763 30.624 23.0783C28.9167 22.9746 27.2078 22.9006 25.498 22.8563C23.7897 22.8063 22.0801 22.8313 20.374 22.9313C18.654 22.9803 17.289 23.0783 16.282 23.2243C15.274 23.3723 14.524 23.8393 14.033 24.6223C13.54 25.4093 13.234 26.6473 13.112 28.3393C12.988 30.0323 12.926 32.4493 12.926 35.5873C12.926 38.4333 12.975 40.6283 13.075 42.1753C13.172 43.7183 13.454 44.8483 13.921 45.5573C14.389 46.2693 15.138 46.6973 16.17 46.8453C17.204 46.9953 18.652 47.0923 20.52 47.1423C22.192 47.2383 23.973 47.2653 25.866 47.2153C27.757 47.1653 29.491 47.0913 31.065 46.9943C32.932 46.8943 34.776 46.7713 36.595 46.6243V52.7333C35.17 53.0733 33.547 53.3443 31.729 53.5413ZM69.999 53.3963V28.8933C69.999 27.3733 69.862 26.1953 69.594 25.3613C69.323 24.5283 68.892 23.9273 68.304 23.5593C67.714 23.1913 66.963 22.9713 66.054 22.8983C65.144 22.8233 64.051 22.7883 62.774 22.7883C61.641 22.7883 60.634 22.8133 59.75 22.8603C58.866 22.9103 58.103 22.9603 57.465 23.0083C56.8247 23.0495 56.185 23.0985 55.546 23.1553V53.3993H43.233V0.0482952H55.546V16.1643C56.1851 16.1087 56.8248 16.06 57.465 16.0183C58.102 15.9693 58.865 15.9203 59.75 15.8713C60.7568 15.8196 61.7648 15.7949 62.773 15.7973C66.066 15.7973 68.941 15.9073 71.399 16.1273C73.856 16.3493 75.897 16.9003 77.52 17.7833C79.14 18.6663 80.345 19.9803 81.133 21.7203C81.917 23.4613 82.312 25.8553 82.312 28.8953V53.3993H69.998V53.3973L69.999 53.3963ZM90.94 10.4233V0.0462952H103.253V10.4233H90.94ZM90.94 53.3973V16.6783H103.253V53.3973H90.94ZM151.768 35.3663C151.768 39.4863 151.584 42.7863 151.215 45.2623C150.846 47.7423 149.986 49.6543 148.634 51.0033C147.281 52.3533 145.279 53.2483 142.625 53.6883C139.97 54.1313 136.358 54.3503 131.786 54.3503C129.426 54.3503 127.583 54.2773 126.256 54.1303C125.564 54.0911 124.875 54.0166 124.191 53.9073V70.0973H111.878V17.3373C113.401 17.0413 115.17 16.7963 117.187 16.6003C119.272 16.3728 121.361 16.1888 123.454 16.0483C125.912 15.8763 128.688 15.7913 131.786 15.7913C136.063 15.7913 139.516 16.0113 142.147 16.4523C144.775 16.8943 146.802 17.8023 148.228 19.1753C149.654 20.5503 150.599 22.5233 151.068 25.0983C151.534 27.6763 151.768 31.0973 151.768 35.3663ZM139.012 34.9983C139.012 31.9563 138.95 29.6023 138.828 27.9333C138.704 26.2653 138.398 25.0533 137.905 24.2913C137.413 23.5313 136.652 23.0903 135.62 22.9663C134.588 22.8453 133.186 22.7833 131.419 22.7833C130.411 22.7811 129.402 22.8054 128.395 22.8563C127.511 22.9063 126.748 22.9563 126.11 23.0043C125.372 23.0523 124.733 23.1023 124.192 23.1513V47.0663C124.734 47.1133 125.372 47.1623 126.11 47.2133C126.747 47.2633 127.511 47.2863 128.395 47.2863H131.419C133.285 47.2863 134.736 47.2253 135.767 47.1013C136.8 46.9813 137.549 46.5503 138.015 45.8133C138.482 45.0783 138.765 43.9283 138.864 42.3543C138.963 40.7853 139.012 38.5553 139.012 35.6593V34.9983Z" fill="#E30613"/>
<path d="M198.667 52.7343C197.093 53.0783 195.299 53.3473 193.284 53.5443C191.564 53.7883 189.488 53.9843 187.054 54.1343C184.621 54.2803 181.856 54.3543 178.76 54.3543C174.187 54.3543 170.574 54.1343 167.92 53.6913C165.265 53.2513 163.25 52.3563 161.875 51.0063C160.498 49.6573 159.626 47.7453 159.257 45.2663C158.888 42.7893 158.704 39.4893 158.704 35.3693C158.704 31.1013 158.936 27.6783 159.404 25.1033C159.872 22.5293 160.816 20.5553 162.244 19.1803C163.668 17.8073 165.696 16.9003 168.326 16.4583C170.955 16.0163 174.432 15.7963 178.76 15.7963C179.939 15.7963 180.984 15.8213 181.894 15.8703C182.802 15.9193 183.6 15.9693 184.289 16.0173C185.075 16.0673 185.764 16.1163 186.355 16.1633V0.0482952H198.667V52.7343ZM186.354 23.0803C185.715 23.0241 185.075 22.9751 184.435 22.9333C183.662 22.8784 182.888 22.8414 182.113 22.8223C181.093 22.797 180.073 22.785 179.053 22.7863C177.285 22.7863 175.883 22.8483 174.851 22.9693C173.82 23.0933 173.045 23.5343 172.53 24.2943C172.013 25.0553 171.693 26.2693 171.572 27.9363C171.448 29.6043 171.387 31.9583 171.387 35.0013V35.6623C171.387 38.5583 171.435 40.7883 171.536 42.3583C171.633 43.9303 171.928 45.0813 172.418 45.8173C172.909 46.5533 173.672 46.9843 174.705 47.1053C175.737 47.2273 177.187 47.2903 179.054 47.2903C180.185 47.2903 181.205 47.2773 182.114 47.2523C182.889 47.2354 183.664 47.199 184.437 47.1433C185.174 47.0933 185.813 47.0193 186.355 46.9203L186.354 23.0803ZM207.29 10.4233V0.0462952H219.604V10.4233H207.29ZM207.29 53.3973V16.6783H219.604V53.3973H207.29ZM268.118 35.3663C268.118 39.4863 267.935 42.7863 267.565 45.2623C267.195 47.7423 266.337 49.6543 264.984 51.0033C263.632 52.3533 261.629 53.2483 258.976 53.6883C256.321 54.1313 252.709 54.3503 248.136 54.3503C245.777 54.3503 243.935 54.2773 242.607 54.1303C241.915 54.0912 241.226 54.0168 240.542 53.9073V70.0973H228.229V17.3373C229.752 17.0413 231.522 16.7963 233.538 16.6003C235.623 16.3729 237.712 16.1888 239.804 16.0483C242.263 15.8763 245.038 15.7913 248.136 15.7913C252.413 15.7913 255.866 16.0113 258.497 16.4523C261.125 16.8943 263.153 17.8023 264.578 19.1753C266.005 20.5503 266.949 22.5233 267.418 25.0983C267.884 27.6763 268.118 31.0973 268.118 35.3663ZM255.362 34.9983C255.362 31.9563 255.3 29.6023 255.178 27.9333C255.054 26.2653 254.747 25.0533 254.256 24.2913C253.763 23.5313 253.002 23.0903 251.97 22.9663C250.939 22.8453 249.536 22.7833 247.769 22.7833C246.636 22.7833 245.63 22.8093 244.746 22.8563C243.86 22.9063 243.098 22.9563 242.46 23.0043C241.82 23.0452 241.181 23.0942 240.542 23.1513V47.0663C241.083 47.1133 241.722 47.1623 242.46 47.2133C243.097 47.2633 243.86 47.2863 244.746 47.2863H247.769C249.635 47.2863 251.085 47.2253 252.117 47.1013C253.151 46.9813 253.899 46.5503 254.366 45.8133C254.834 45.0783 255.116 43.9283 255.214 42.3543C255.313 40.7853 255.363 38.5553 255.363 35.6593L255.362 34.9983ZM275.933 53.3963V41.6253H288.246V53.3983H275.933V53.3963Z" fill="#646363"/>
</g>
</g>
</g>
<defs>
<clipPath id="clip0_1_27">
<rect width="288" height="71" fill="white" transform="translate(0.245972 0.0462952)"/>
</clipPath>
<clipPath id="clip1_1_27">
<rect width="288" height="71" fill="white" transform="translate(0.245972 0.0462952)"/>
</clipPath>
<clipPath id="clip2_1_27">
<rect width="288" height="71" fill="white" transform="translate(0.245972 0.0462952)"/>
</clipPath>
</defs>
</svg>
